<svg width="18" height="18" viewBox="0 0 18 18" fill="none" xmlns="http://www.w3.org/2000/svg">
<g id="education (69) 1">
<g id="Group">
<path id="Vector" fill-rule="evenodd" clip-rule="evenodd" d="M11.753 12.6399C11.4381 12.6399 11.3424 12.5841 11.1004 12.5277L11.1628 12.3046C11.2534 12.0174 11.384 11.7976 11.5724 11.5723C11.5919 11.5491 11.6206 11.5212 11.6451 11.5023C11.7515 11.4201 11.7049 11.4315 11.8834 11.3124C12.233 11.0792 12.5462 11.006 12.9459 10.9372C13.2636 10.8825 13.6567 10.8658 14.0267 10.8658C14.0114 10.9231 13.8718 11.1084 13.8335 11.1723C13.7103 11.3779 13.5459 11.5589 13.3989 11.747L13.1526 12.0105L12.8803 12.2379C12.7296 12.3509 12.5667 12.4439 12.3894 12.5117C12.1878 12.5888 11.9842 12.6399 11.753 12.6399ZM11.5185 4.94216C11.5185 5.08197 11.5523 5.05432 11.3145 5.05432C10.983 5.05432 10.6822 4.97256 10.4104 4.82664C10.3507 4.79459 10.2895 4.75448 10.2366 4.71507C10.094 4.60906 10.0506 4.56401 9.94049 4.4401C9.85167 4.34016 9.76568 4.22933 9.6965 4.11315C9.52987 3.83308 9.45035 3.64925 9.3306 3.33716C9.30274 3.26458 9.28368 3.1981 9.25876 3.12348L9.15512 2.79894C9.14329 2.75609 9.13153 2.72827 9.1224 2.6889C9.18423 2.6889 9.4217 2.77394 9.50703 2.80388L9.98758 2.98604C10.0503 3.01175 10.1208 3.04143 10.1863 3.07283L10.5581 3.28223C10.6185 3.32105 10.6755 3.3615 10.732 3.40397C10.8872 3.52078 10.9702 3.60819 11.103 3.75684C11.3569 4.04107 11.5185 4.50841 11.5185 4.94216ZM11.0902 11.5795C11.0902 11.8076 11.0329 12.0584 10.968 12.222C10.9087 12.3714 10.823 12.526 10.7314 12.6583C10.7127 12.6853 10.7004 12.692 10.6926 12.7215C10.6547 12.7183 10.6166 12.688 10.5905 12.6706C10.4887 12.6029 10.3311 12.4767 10.2464 12.3927L10.0298 12.1302C9.84461 11.8505 9.72395 11.5265 9.72395 11.1717C9.72395 10.8743 9.71743 10.8325 9.76908 10.5236C9.792 10.3864 9.81825 10.2743 9.85039 10.146L10.0056 9.60792C10.0217 9.55963 10.0566 9.4743 10.0604 9.42825C10.0953 9.43755 10.0922 9.44262 10.1118 9.46865C10.3733 9.81724 10.4759 9.92578 10.7237 10.3555C10.7997 10.4874 10.927 10.7665 10.9718 10.9026C11.0331 11.0886 11.0902 11.3397 11.0902 11.5795ZM12.1914 7.18521C12.1914 7.44493 12.1925 7.51507 12.1302 7.76637C12.1203 7.8066 12.1006 7.85643 12.0996 7.89891C11.9593 7.89891 11.6042 7.76064 11.4655 7.67659C11.1973 7.51411 11.3312 7.59757 11.1325 7.43858C11.0648 7.38439 10.9823 7.28789 10.927 7.21593C10.906 7.18865 10.8885 7.16312 10.8679 7.13222C10.7804 7.00113 10.7277 6.89978 10.6678 6.75116C10.5767 6.52544 10.5253 6.30695 10.4856 6.06665C10.4592 5.90637 10.4509 5.70212 10.4303 5.5511C10.4239 5.50501 10.4311 5.4583 10.426 5.41266L10.4071 4.99315C10.4509 5.00333 10.6709 5.1521 10.7109 5.17868C10.7625 5.21289 10.8056 5.24528 10.8557 5.27862C10.909 5.31409 10.9511 5.3451 11.0043 5.38492C11.4331 5.7064 11.6932 5.95334 11.9691 6.40835C12.013 6.48093 12.0949 6.67646 12.118 6.75905C12.1534 6.88574 12.1914 7.02692 12.1914 7.18521ZM9.13257 16.504C9.10621 16.5167 9.07299 16.5255 9.04201 16.5358C8.47866 16.7234 8.05587 16.8813 7.39927 16.8813C7.21113 16.8813 7.01277 16.8498 6.86229 16.8065C6.5595 16.7193 6.30426 16.5772 6.08651 16.3587C6.02871 16.3008 5.82529 16.086 5.80868 16.0146C6.05113 15.8523 5.95563 15.8766 6.3082 15.6986C6.79157 15.4545 7.37959 15.5029 7.86545 15.7116C8.09827 15.8116 8.25805 15.904 8.4731 16.0318L8.92085 16.3385C8.95593 16.3675 8.9867 16.3908 9.0247 16.4182C9.06036 16.4438 9.11127 16.4723 9.13257 16.504ZM12.4667 6.6856C12.3346 6.48849 12.2796 6.43663 12.168 6.17881C11.8849 5.52444 12.0748 4.87136 12.4152 4.29926C12.5142 4.13267 12.6203 3.97911 12.7361 3.82498L13.0988 3.38222L13.2232 3.81858C13.3393 4.2829 13.4602 4.8276 13.3772 5.32252C13.3198 5.66529 13.2261 5.90205 13.0622 6.13924L12.9357 6.29819C12.8985 6.34681 12.8416 6.40378 12.7929 6.44094L12.6373 6.5707C12.5813 6.61231 12.523 6.6479 12.4667 6.6856ZM12.4157 2.75011C12.4157 3.1577 12.3899 3.32159 12.2186 3.66432C12.1569 3.78765 12.1153 3.84815 12.0327 3.95765C11.9884 4.0164 11.86 4.17054 11.8039 4.20807C11.7047 4.14163 11.5708 3.98679 11.491 3.88884C11.469 3.86181 11.4542 3.84088 11.4349 3.81248C11.2602 3.55607 11.1004 3.24639 11.1004 2.87244C11.1004 2.3825 11.166 2.1219 11.3378 1.69268L11.7326 0.853699C11.772 0.864246 11.7627 0.87226 11.7971 0.942102L11.9671 1.26154C12.1812 1.6896 12.4157 2.27778 12.4157 2.75011ZM12.3545 9.01019C12.3316 8.91187 12.3 8.81068 12.2847 8.70276C12.2004 8.10765 12.3078 7.68494 12.656 7.24197C12.7113 7.17159 12.89 6.96866 12.9604 6.91423C12.9925 6.88948 13.0017 6.87644 13.0318 6.85306C13.0819 6.81407 13.1221 6.77296 13.17 6.73642C13.4516 6.52154 13.6335 6.41192 13.9369 6.22876C13.9928 6.19496 14.041 6.16531 14.098 6.13504C14.098 6.56095 14.0013 7.2276 13.8674 7.62747C13.8163 7.78023 13.8055 7.79975 13.7455 7.93383C13.7273 7.97465 13.7136 7.99557 13.6937 8.03498C13.6053 8.21025 13.471 8.39021 13.331 8.52869C13.3027 8.55672 13.2839 8.5666 13.2543 8.59476C13.1438 8.70002 12.9447 8.81321 12.8003 8.87487C12.7358 8.90244 12.6651 8.93462 12.5951 8.95509C12.5339 8.97295 12.419 9.01019 12.3545 9.01019ZM10.8761 2.53601C10.8761 2.6088 10.8745 2.86558 10.8461 2.89386C10.8246 2.91516 10.609 2.87904 10.5701 2.87256C10.3889 2.84229 10.2275 2.79088 10.0792 2.7313L9.87264 2.6218C9.62263 2.45708 9.39853 2.24087 9.25494 1.97524C9.23567 1.93962 9.22073 1.91719 9.20063 1.87658L9.09508 1.66606C8.96108 1.38096 8.84187 0.871969 8.77639 0.557347C8.75762 0.467159 8.74491 0.379586 8.72473 0.292969C8.77016 0.296706 8.86487 0.349357 8.91399 0.368749C9.17007 0.469941 9.58783 0.688104 9.81775 0.841449C9.84619 0.860467 9.87115 0.875997 9.89722 0.894516C9.92305 0.912828 9.95461 0.934005 9.98035 0.954144C10.1682 1.1013 10.1413 1.08233 10.309 1.23729L10.413 1.34737C10.5279 1.49532 10.5393 1.49033 10.6422 1.6688C10.7864 1.91939 10.8761 2.21952 10.8761 2.53601ZM4.17727 16.0045C4.08388 16.0045 3.98087 15.984 3.8918 15.984C3.8918 15.7499 3.91821 15.6213 3.97331 15.413C4.01238 15.2653 4.07317 15.1217 4.14467 15.0032C4.25251 14.8245 4.38426 14.6607 4.55011 14.5318C4.57963 14.5088 4.60035 14.4912 4.62896 14.468L4.89674 14.2973C5.17478 14.1286 5.65666 13.9877 5.96767 13.9102C6.13011 13.8698 6.28873 13.84 6.451 13.8022C6.4478 13.8408 6.31966 14.1398 6.29525 14.197C6.16403 14.504 5.89941 15.0053 5.67348 15.2575L5.54355 15.4029C5.52267 15.4302 5.50211 15.4526 5.47466 15.4767C5.09639 15.8093 4.70453 16.0045 4.17727 16.0045ZM8.10275 13.2312C8.10275 13.7775 8.00331 14.3481 7.66593 14.7622C7.48796 14.9806 7.39607 15.0392 7.18717 15.1806C7.15187 15.2046 6.95567 15.3213 6.92001 15.3213C6.86528 15.3213 6.7398 14.9799 6.71995 14.9199C6.58711 14.5185 6.58786 14.1333 6.73012 13.7346C6.75238 13.6723 6.77488 13.629 6.79623 13.5764C6.8397 13.4695 6.89501 13.383 6.95003 13.2918L7.03503 13.1627C7.18746 12.9607 7.35475 12.7508 7.53426 12.571L7.69794 12.4084C7.7246 12.3861 7.73291 12.3831 7.75882 12.3571C7.78851 12.3272 7.95398 12.1603 7.9906 12.1505L8.06509 12.6674C8.08727 12.8329 8.10275 13.0403 8.10275 13.2312ZM12.2424 10.8251C12.0653 10.8251 11.925 10.8313 11.7512 10.7957C11.7095 10.7872 11.7094 10.8073 11.7241 10.6944C11.7691 10.3494 11.9091 9.94812 12.1431 9.68578C12.2177 9.60207 12.2906 9.52189 12.3791 9.45279C12.8164 9.11126 13.3138 8.97058 13.8592 8.87342L14.2708 8.80573C14.3121 8.80005 14.3728 8.78684 14.4141 8.78593C14.4128 8.84348 14.3634 8.91789 14.3393 8.96601L14.2043 9.22865C14.0475 9.49066 13.9533 9.69305 13.7444 9.95144C13.5315 10.2148 13.3482 10.4045 13.0576 10.5799C12.8724 10.6916 12.5366 10.8251 12.2424 10.8251ZM11.7938 9.28554C11.7938 9.54539 11.7941 9.72535 11.6977 9.97457C11.6696 10.0471 11.6441 10.1062 11.6146 10.1769C11.5826 10.2538 11.5537 10.2996 11.5185 10.3662C11.4193 10.358 11.098 10.13 11.0379 10.0821C10.8863 9.96141 10.9383 9.99575 10.8432 9.89958C10.6417 9.69599 10.5131 9.44606 10.4318 9.15885C10.2694 8.58504 10.3729 7.90655 10.4877 7.32701C10.4975 7.27726 10.5153 7.2129 10.5192 7.16482C10.5633 7.17657 10.739 7.367 10.7871 7.41695L11.1342 7.81412C11.4454 8.19958 11.7938 8.7836 11.7938 9.28554ZM11.1616 14.8217C11.1496 14.8667 11.0402 14.9212 11.0027 14.9484C10.8322 15.0725 10.5589 15.2486 10.3731 15.3486C10.1188 15.4855 9.93273 15.5688 9.64368 15.6591C9.34991 15.7509 8.94426 15.7763 8.61652 15.6947C8.43722 15.6499 8.15404 15.522 8.00945 15.4147C7.95232 15.3722 7.8953 15.3294 7.83767 15.2908C7.85087 15.2413 7.97935 15.085 8.02374 15.0384C8.17156 14.8832 8.21258 14.827 8.41883 14.6892C8.63699 14.5435 8.96415 14.4037 9.32632 14.4037C9.72611 14.4037 9.81771 14.4102 10.2032 14.5057C10.2679 14.5217 10.3379 14.5391 10.4033 14.5605C10.5486 14.6081 11.0237 14.7556 11.1616 14.8217ZM12.8235 12.9662C12.8162 12.9937 12.6442 13.1715 12.612 13.2033C12.5737 13.2411 12.5392 13.2805 12.4997 13.3152L12.2653 13.5294C12.2391 13.5555 12.2315 13.5583 12.2046 13.5809C12.1806 13.601 12.1726 13.6142 12.1463 13.6348C12.0587 13.7034 11.9818 13.7635 11.8929 13.83C11.8086 13.893 11.7091 13.952 11.6199 14.0055C11.4488 14.108 11.1834 14.2192 10.9821 14.2651C10.5884 14.3548 10.2111 14.312 9.853 14.1523L9.64235 14.0571C9.66864 13.9443 9.84387 13.6659 9.91765 13.5677C10.1385 13.2738 10.456 13.0384 10.817 12.9377C11.4041 12.774 11.9574 12.8244 12.5512 12.9224C12.6309 12.9356 12.7465 12.9662 12.8235 12.9662ZM9.07141 14.1896C9.00007 14.1418 8.88053 14.0024 8.82239 13.9288C8.54651 13.58 8.39844 13.2763 8.39844 12.752C8.39844 12.3504 8.56898 11.8296 8.74171 11.4844L8.95909 11.0492C8.98903 10.9914 9.05679 10.8979 9.07141 10.8353C9.11542 10.847 9.09715 10.8537 9.13303 10.9164C9.26001 11.1377 9.35535 11.3771 9.45861 11.6104C9.5674 11.8563 9.67196 12.2478 9.70439 12.5269C9.73532 12.7923 9.72096 13.0428 9.64837 13.2984C9.6375 13.3367 9.62466 13.3739 9.61308 13.4058C9.6005 13.4407 9.58513 13.4849 9.57098 13.5167C9.51841 13.6348 9.43117 13.7819 9.35551 13.8824C9.29759 13.9593 9.14441 14.1407 9.07141 14.1896ZM6.85884 17.4624C6.82546 17.4784 6.74573 17.4958 6.69981 17.5073C6.25343 17.6184 5.82495 17.7071 5.34985 17.7071C4.93449 17.7071 4.50169 17.585 4.25268 17.4176C4.0407 17.2752 4.06628 17.2937 3.8739 17.103C3.81128 17.041 3.60795 16.7804 3.5859 16.6978L3.82034 16.555C3.94665 16.4899 3.92385 16.4909 4.07678 16.4341C4.53001 16.2656 4.96235 16.2704 5.4125 16.4516C5.77201 16.5962 6.01114 16.7666 6.30534 16.9861C6.34732 17.0174 6.37946 17.0447 6.41911 17.0763C6.46043 17.1093 6.49124 17.1318 6.5299 17.1694C6.56835 17.2068 6.82641 17.414 6.85884 17.4624Z" fill="url(#paint0_linear_25266_8758)"/>
</g>
</g>
<defs>
<linearGradient id="paint0_linear_25266_8758" x1="9.00001" y1="0.292969" x2="9.00001" y2="17.7071" gradientUnits="userSpaceOnUse">
<stop stop-color="#FFECCF"/>
<stop offset="1" stop-color="#C4811D"/>
</linearGradient>
</defs>
</svg>
