<?xml version="1.0" encoding="UTF-8"?>
<svg id="Layer_1" xmlns="http://www.w3.org/2000/svg" viewBox="0 0 24 24">
  <defs>
    <style>
      .cls-1 {
        fill: #c6c6c5;
      }

      .cls-1, .cls-2, .cls-3, .cls-4, .cls-5 {
        fill-rule: evenodd;
      }

      .cls-6, .cls-2 {
        fill: #fff;
      }

      .cls-7, .cls-8 {
        fill: none;
      }

      .cls-8 {
        stroke: #fdec09;
        stroke-miterlimit: 10;
        stroke-width: 0px;
      }

      .cls-9, .cls-4 {
        fill: #2c2a29;
      }

      .cls-3, .cls-10 {
        fill: #fecd06;
      }

      .cls-5, .cls-11 {
        fill: #25458c;
      }
    </style>
  </defs>
  <g id="Layer_x5F_1">
    <rect class="cls-7" width="24" height="24"/>
    <g id="_2663636192480">
      <g>
        <path class="cls-4" d="M12.32,3.81c.08.01.16.03.23.05l.87-.85-.31,1.14s.06.05.09.08l1.39-.51-1,1.02s0,0,0,.01l1.66-.03-1.48.63,1.7.45-.5.06c.25.16.43.41.48.72.08.5-.11.78-.39,1.17-.11.16-.25.32-.35.49-.09.16-.15.31-.15.49-.01.27.07.56.17.81.12.31.23.67.16,1-.07.34-.3.59-.55.8-.36.33-.77.61-1.19.87-.2.12-.39.23-.6.33-.16.08-.33.16-.51.22l-.07.02-.07-.02c-.17-.06-.34-.14-.51-.22-.2-.1-.4-.22-.6-.33-.42-.25-.83-.54-1.19-.87-.26-.21-.48-.47-.55-.8-.07-.33.04-.69.16-1,.09-.25.18-.54.17-.81,0-.18-.06-.33-.15-.49-.1-.17-.23-.33-.35-.49-.28-.39-.47-.67-.39-1.17.05-.32.23-.56.48-.72l-.5-.06,1.71-.45-1.48-.63,1.66.03s0,0,0-.01l-1-1.02,1.39.51s.06-.05.09-.08l-.31-1.14.87.85c.08-.02.15-.04.23-.05l.32-1.03.32,1.03h0Z"/>
        <path class="cls-4" d="M12,3.11l-.24.79c-.11.02-.23.04-.33.08l-.66-.64.23.86c-.07.05-.13.1-.18.15l-1.04-.38.75.77s-.04.08-.06.13l-1.23-.02,1.13.48s0,.04,0,.05,0,.04,0,.05l-1.38.35.43.03c-.42.1-.72.4-.79.8-.07.43.07.68.37,1.1.12.16.25.32.35.49.1.17.16.34.17.54.01.28-.08.59-.17.85-.11.29-.22.64-.15.95.06.31.28.55.52.75.35.32.77.61,1.17.86.19.12.39.23.59.33.16.08.33.16.5.22h.03s.03,0,.03,0c.17-.06.34-.14.5-.22.2-.1.4-.21.59-.33.41-.25.82-.54,1.17-.86.24-.2.46-.44.52-.75.06-.31-.04-.66-.15-.95-.1-.26-.19-.57-.17-.85,0-.2.06-.36.17-.54.1-.17.24-.33.35-.49.3-.42.44-.66.37-1.1-.07-.41-.37-.7-.79-.8l.43-.03-1.38-.35s0-.04,0-.05,0-.04,0-.05l1.13-.48-1.23.02s-.04-.09-.06-.13l.75-.77-1.04.38c-.06-.05-.12-.1-.18-.15l.23-.86-.66.64c-.11-.04-.22-.06-.33-.08l-.24-.79h0Z"/>
        <path class="cls-3" d="M12,3.11l-.24.79c-.11.02-.23.04-.33.08l-.66-.64.23.86c-.07.05-.13.1-.18.15l-1.04-.38.75.77s-.04.08-.06.13l-1.23-.02,1.13.48s0,.04,0,.05,0,.04,0,.05l-1.38.35,1.48.11s.04.09.06.13l-.75.77,1.04-.38c.06.05.12.1.18.15l-.23.86.66-.64c.11.04.22.06.33.08l.24.79.24-.79c.11-.02.23-.04.33-.08l.66.64-.23-.86c.07-.05.13-.1.18-.15l1.04.38-.75-.77s.04-.08.06-.13l1.48-.11-1.38-.35s0-.04,0-.05,0-.04,0-.05l1.13-.48-1.23.02s-.04-.09-.06-.13l.75-.77-1.04.38c-.06-.05-.12-.1-.18-.15l.23-.86-.66.64c-.11-.04-.22-.06-.33-.08l-.24-.79h0Z"/>
        <path class="cls-1" d="M12,6.21c.35-.04.8-.19,1.77-.38.79-.23,1.49.13,1.6.78.07.43-.07.68-.37,1.1-.12.16-.25.32-.35.49-.1.17-.16.34-.17.54-.01.28.08.59.17.85.11.29.22.64.15.95-.06.31-.28.55-.52.75-.35.32-.77.61-1.17.86-.19.12-.39.23-.59.33-.16.08-.33.16-.5.22h-.03s-.03,0-.03,0c-.17-.06-.34-.14-.5-.22-.2-.1-.4-.21-.59-.33-.41-.25-.82-.54-1.17-.86-.24-.2-.46-.44-.52-.75-.06-.31.04-.66.15-.95.1-.26.19-.57.17-.85,0-.2-.06-.36-.17-.54-.1-.17-.24-.33-.35-.49-.3-.42-.44-.66-.37-1.1.11-.65.81-1,1.6-.78.98.19,1.42.34,1.77.38h0Z"/>
        <path class="cls-5" d="M12,12.51c.16-.06.31-.13.46-.21.2-.1.39-.21.57-.32.2-.12.4-.26.6-.4.19-.14.37-.28.54-.44h0s0,0,0,0c.21-.18.41-.39.47-.67.02-.13.02-.26,0-.38-.03-.16-.08-.33-.14-.49-.1-.28-.19-.6-.18-.9,0-.22.07-.41.18-.59.1-.17.24-.33.35-.5.13-.18.25-.41.33-.61h-.07c-.13.04-.28.05-.4-.01-.1-.05-.17-.12-.24-.2-.06-.06-.12-.14-.19-.18-.08-.05-.17-.05-.26-.03-.23.06-.46.11-.69.17-.17.04-.35.08-.53.12-.26.05-.52.1-.78.1h-.01s-.01,0-.01,0c-.26,0-.52-.04-.78-.1-.18-.04-.35-.08-.53-.12-.23-.05-.46-.11-.69-.17-.09-.02-.18-.02-.26.03-.07.04-.14.12-.19.18-.07.08-.14.15-.24.2-.12.06-.27.06-.4.03h-.07c.08.19.21.42.33.6.12.17.25.32.35.5.11.19.17.38.18.59.01.3-.08.62-.18.9-.06.16-.11.32-.14.49-.02.13-.03.26,0,.38.05.28.26.49.47.67h0s0,0,0,0c.17.16.35.3.54.44.19.14.39.27.6.4.19.11.38.22.57.32.15.07.3.15.46.21Z"/>
        <path class="cls-2" d="M9.15,6.46c-.09,0-.17.07-.17.16s.07.16.17.16.17-.07.17-.16-.07-.16-.17-.16ZM14.85,6.46c-.09,0-.17.07-.17.16s.07.16.17.16.17-.07.17-.16-.07-.16-.17-.16Z"/>
        <g>
          <path class="cls-3" d="M12,11.28v.32h-1.22c-.12,0-.22-.1-.22-.22v-1.01c0-.09.07-.16.16-.16s.16.07.16.16v.91h1.13Z"/>
          <path class="cls-2" d="M12,11.28v.32h1.22c.12,0,.22-.1.22-.22v-1.01c0-.09-.07-.16-.16-.16s-.16.07-.16.16v.91h-1.13Z"/>
        </g>
        <g>
          <path class="cls-5" d="M12,6.3c.7,0,1.27-.5,1.27-1.1s-.57-1.1-1.27-1.1-1.27.5-1.27,1.1.57,1.1,1.27,1.1h0Z"/>
          <path class="cls-2" d="M10.84,5.13c.01-.16.07-.3.15-.43.14.05.29.1.43.13-.02.1-.04.2-.04.3h-.55ZM12.48,5.17s0,.03,0,.04h-.96s0-.03,0-.04h.96ZM12.53,5.17h.04s0,.03,0,.04h-.04s0-.03,0-.04ZM12.62,5.17h.55s0,.03,0,.04h-.55s0-.03,0-.04h0ZM13.21,5.2c0-.29-.14-.55-.36-.74-.22-.19-.52-.31-.86-.31s-.64.12-.86.31c-.22.19-.36.45-.36.74s.14.55.36.74c.22.19.52.31.86.31s.64-.12.86-.31c.22-.19.36-.45.36-.74ZM12,4.19c.06,0,.12,0,.17.01.02.04.05.08.07.12-.16.03-.33.03-.49,0,.02-.04.05-.08.07-.12.06,0,.11-.01.17-.01h0ZM12.27,4.37s.01.03.02.04c-.19.04-.38.04-.58,0,0-.01.01-.03.02-.04.18.03.36.03.53,0h0ZM12.31,4.45c.04.09.07.17.1.26-.27.05-.54.05-.82,0,.03-.09.06-.17.1-.26.21.04.41.04.62,0h0ZM12.42,4.76s0,.03.01.04c-.29.05-.58.05-.87,0,0-.01,0-.03.01-.04.28.05.56.05.84,0ZM12.44,4.85c.02.09.03.18.04.28h-.96c0-.09.02-.18.04-.28.3.05.59.05.89,0h0ZM12.49,4.7s-.03,0-.04,0c-.03-.09-.06-.18-.1-.26.01,0,.02,0,.03,0,.04.09.08.18.1.26h0ZM12.48,4.79s0-.03-.01-.04c.01,0,.03,0,.04,0,0,.01,0,.03.01.04-.01,0-.03,0-.04,0ZM12.53,5.13c0-.1-.02-.19-.04-.29.01,0,.03,0,.04,0,.02.1.03.2.04.29h-.04ZM12.62,5.13c0-.1-.02-.2-.04-.3.14-.03.29-.07.43-.13.09.13.14.27.15.43h-.55ZM12.57,4.78s0-.03-.01-.04c.13-.03.26-.07.4-.12.01.01.02.03.03.04-.14.05-.28.09-.42.12h0ZM12.29,4.31s-.04-.07-.06-.1c.01,0,.03,0,.04,0,.02.03.03.06.05.09-.01,0-.02,0-.03,0ZM12.37,4.39s-.02,0-.03,0c0-.01-.01-.03-.02-.04.01,0,.02,0,.03,0,0,.01.01.03.02.04h0ZM12.54,4.69c-.03-.09-.06-.18-.1-.27.07-.02.13-.04.2-.07.07.04.13.08.19.13.03.03.06.06.09.09-.13.05-.25.08-.38.11h0ZM12.42,4.38s-.01-.03-.02-.04c.04-.01.08-.03.12-.04.02,0,.04.02.06.03-.05.02-.11.04-.16.05ZM12.37,4.29s-.02-.04-.03-.06c.04,0,.08.02.11.03-.03,0-.05.02-.08.02ZM12.48,5.26c0,.09-.02.18-.04.28-.3-.05-.59-.05-.89,0-.02-.09-.03-.18-.04-.28h.96,0ZM12.43,5.59s0,.03-.01.04c-.28-.05-.56-.05-.84,0,0-.01,0-.03-.01-.04.29-.05.58-.05.87,0ZM12.41,5.68c-.03.09-.06.17-.1.26-.21-.04-.41-.04-.62,0-.04-.09-.07-.17-.1-.26.27-.05.54-.05.82,0h0ZM12.29,5.98s-.01.03-.02.04c-.18-.03-.36-.03-.53,0,0-.01-.01-.03-.02-.04.19-.04.38-.04.58,0h0ZM12.24,6.07s-.05.08-.07.12c-.06,0-.11.01-.17.01s-.12,0-.17-.01c-.02-.04-.05-.08-.07-.12.16-.03.33-.03.49,0h0ZM12.46,5.69s.03,0,.04,0c-.03.09-.06.18-.1.26-.01,0-.02,0-.03,0,.04-.09.07-.17.1-.26h0ZM12.47,5.64s0-.03.01-.04c.01,0,.03,0,.04,0,0,.01,0,.03-.01.04-.01,0-.03,0-.04,0ZM12.49,5.55c.02-.09.03-.19.04-.29h.04c0,.1-.02.2-.04.29-.01,0-.03,0-.04,0ZM12.58,5.57c.02-.1.04-.2.04-.3h.55c-.01.16-.07.3-.15.43-.14-.05-.29-.1-.43-.13h0ZM12.55,5.66s0-.03.01-.04c.14.03.28.07.42.12-.01.01-.02.03-.03.04-.13-.05-.26-.09-.4-.12ZM12.24,6.18s.04-.07.06-.1c.01,0,.02,0,.03,0-.02.03-.03.06-.05.09-.01,0-.03,0-.04,0ZM12.34,5.99s.02,0,.03,0c0,.01-.01.03-.02.04-.01,0-.02,0-.03,0,0-.01.01-.03.02-.04h0ZM12.44,5.97c.04-.09.08-.18.1-.27.13.03.25.06.38.11-.03.03-.06.06-.09.09-.06.05-.12.1-.19.13-.07-.03-.13-.05-.2-.07h0ZM12.4,6.05s.01-.03.02-.04c.05.01.11.03.16.05-.02,0-.04.02-.06.03-.04-.02-.08-.03-.12-.04ZM12.34,6.15s.02-.04.03-.06c.03,0,.05.02.08.02-.04.01-.07.02-.11.03ZM11.47,5.22h-.04s0-.03,0-.04h.04s0,.03,0,.04ZM11.38,5.22h-.55s0-.03,0-.04h.55s0,.03,0,.04ZM10.84,5.26h.55c0,.1.02.2.04.3-.14.03-.29.07-.43.13-.09-.13-.14-.27-.15-.43ZM11.02,5.73c.14-.05.28-.09.42-.12,0,.01,0,.03.01.04-.13.03-.26.07-.4.12-.01-.01-.02-.03-.03-.04ZM11.51,5.69s.03,0,.04,0c.03.09.06.18.1.26-.01,0-.02,0-.03,0-.04-.09-.08-.18-.1-.26h0ZM11.49,5.65s0-.03-.01-.04c.01,0,.03,0,.04,0,0,.01,0,.03.01.04-.01,0-.03,0-.04,0h0ZM11.47,5.56c-.02-.1-.03-.2-.04-.29h.04c0,.1.02.19.04.29-.01,0-.03,0-.04,0h0ZM11.08,5.82c.13-.05.25-.08.38-.11.03.09.06.18.1.27-.07.02-.13.04-.2.07-.07-.04-.13-.08-.19-.13-.03-.03-.06-.06-.09-.09h0ZM11.42,6.07c.05-.02.11-.04.16-.05,0,.01.01.03.02.04-.04.01-.08.03-.12.04-.02,0-.04-.02-.06-.03ZM11.73,6.17s-.03-.06-.05-.09c.01,0,.02,0,.03,0,.02.03.04.07.06.1-.01,0-.03,0-.04,0h0ZM11.65,6.04s-.01-.03-.02-.04c.01,0,.02,0,.03,0,0,.01.01.03.02.04-.01,0-.02,0-.03,0ZM11.55,6.12s.05-.02.08-.02c.01.02.02.04.03.06-.04-.01-.08-.02-.11-.03ZM11.43,5.13c0-.1.02-.2.04-.29.01,0,.03,0,.04,0-.02.09-.03.19-.04.29h-.04ZM11.43,4.78c-.14-.03-.28-.07-.42-.12.01-.01.02-.03.03-.04.13.05.26.09.4.12,0,.01,0,.03-.01.04ZM11.54,4.7s-.03,0-.04,0c.03-.09.06-.18.1-.26.01,0,.02,0,.03,0-.04.09-.07.17-.1.26h0ZM11.48,4.79s0-.03.01-.04c.01,0,.03,0,.04,0,0,.01,0,.03-.01.04-.01,0-.03,0-.04,0h0ZM11.46,4.69c-.13-.03-.25-.06-.38-.11.03-.03.06-.06.09-.09.06-.05.12-.1.19-.13.07.03.13.05.2.07-.04.09-.08.18-.1.27h0ZM11.58,4.38c-.05-.02-.11-.03-.16-.05.02,0,.04-.02.06-.03.04.02.08.03.12.04,0,.01-.01.03-.02.04ZM11.67,4.31s.03-.06.05-.09c.01,0,.03,0,.04,0-.02.03-.04.07-.06.1-.01,0-.02,0-.03,0h0ZM11.63,4.39s.01-.03.02-.04c.01,0,.02,0,.03,0,0,.01-.01.03-.02.04-.01,0-.02,0-.03,0ZM11.63,4.29s-.05-.02-.08-.02c.04-.01.07-.02.11-.03-.01.02-.02.04-.03.06Z"/>
        </g>
        <path class="cls-3" d="M12,9.46c-.12.15-.27.37-.28.57-.04.48.6.48.56,0-.01-.19-.16-.41-.28-.57ZM11.87,10.12c0-.1.08-.21.13-.29.06.08.13.19.13.29.02.25-.29.25-.27,0Z"/>
        <path class="cls-3" d="M12.18,10.79c.03.1.11.17.23.22v.05c-.27.11-.54.11-.81,0v-.05c.12-.05.2-.12.23-.22-.04-.02-.08-.04-.12-.07-.07-.05-.14-.16-.15-.24,0-.02,0-.05,0-.05,0-.03.06-.06.06-.06.04-.02.09-.04.14-.05h0s.02.02.03.03c-.06,0-.12.03-.16.05-.04.02-.07.05-.02.09.04.03.13.06.18.06.08,0,.17-.04.2-.12h0s0,0,0,0c.03.08.12.12.2.12.06,0,.14-.02.18-.06.05-.04.02-.07-.02-.09-.04-.02-.1-.04-.16-.05,0,0,.02-.02.03-.03h0c.05,0,.1.02.14.05,0,0,.05.03.06.06,0,0,0,.02,0,.05,0,.08-.08.19-.15.24-.04.03-.08.05-.12.07Z"/>
        <polygon class="cls-8" points="9 10.33 8.91 10.46 8.93 10.63 9 10.68 9 10.33"/>
        <g>
          <path class="cls-4" d="M12,12.72c.19,0,.37-.02.6-.06,1.15-.2,2.08-.98,2.39-1.99v-.09h0s-.07-1.74-.07-1.74h.54l.07.18.05-.2h.51v.99h.21s0,.09,0,.09c0,2.15-1.93,3.89-4.31,3.89h0c-2.37,0-4.31-1.75-4.31-3.89v-.09h.21s0-.99,0-.99h.51l.05.2.07-.18h.54l-.07,1.74h0s0,.09,0,.09c.31,1.01,1.24,1.78,2.39,1.99.23.03.42.05.6.06h0Z"/>
          <path class="cls-2" d="M12,12.81c1.77,0,3.21-1.29,3.23-2.89h.98c0,2.1-1.89,3.8-4.21,3.8-2.32,0-4.21-1.7-4.21-3.8h.98c.02,1.6,1.46,2.89,3.23,2.89h0ZM8.87,9.82c0,.21.01.38.05.59l.06-1.47h-.38l-.14.4-.12-.41h-.34v.89h.87ZM15.13,9.82c0,.21-.01.38-.05.59l-.06-1.47h.38l.14.4.12-.41h.34v.89h-.87Z"/>
          <path class="cls-9" d="M8.28,10.17s.05,0,.07,0c.02,0,.04,0,.06,0,.01,0,.03,0,.04.01.01,0,.02.01.04.02.01,0,.02.02.03.03,0,0,.02.02.02.03,0,.01.02.03.02.05,0,.02.01.04.01.06,0,.04,0,.07,0,.1,0,.03-.02.06-.04.08-.02.03-.04.05-.07.06-.03.02-.06.03-.1.03-.04,0-.08,0-.11,0-.03,0-.06-.02-.09-.04-.03-.02-.05-.04-.06-.07-.02-.03-.03-.06-.03-.09,0-.04,0-.07,0-.1,0-.03.02-.06.04-.08.02-.02.04-.05.07-.06.03-.02.06-.03.1-.03h0ZM8.3,10.29s-.05.01-.07.02c-.02,0-.03.02-.05.03-.01.01-.02.03-.02.04,0,.02,0,.03,0,.05,0,.02,0,.03.02.05,0,.01.02.03.04.04.01,0,.03.02.05.02.02,0,.05,0,.07,0,.03,0,.05-.01.07-.02.02,0,.03-.02.04-.03.01-.01.02-.03.02-.04,0-.02,0-.03,0-.05,0-.02,0-.04-.02-.05,0-.01-.02-.03-.04-.04-.01,0-.03-.02-.05-.02-.02,0-.04,0-.07,0h0ZM8.14,10.74l.1-.02.03.1-.1.03-.03-.1h0s0,0,0,0ZM8.19,10.92l.46-.17.06.15s.02.05.02.07c0,.02,0,.03,0,.04,0,.01,0,.03,0,.04,0,.01,0,.03-.02.04,0,.01-.02.03-.03.04-.01.01-.03.02-.05.03-.01,0-.03,0-.04.01-.01,0-.03,0-.04,0-.01,0-.02,0-.03,0-.01,0-.02,0-.03-.01,0,0-.02-.01-.02-.02,0,0-.01-.01-.02-.02h0s-.01-.02-.02-.04c0-.02-.01-.03-.02-.05l-.02-.05-.17.06-.04-.1h0s0,0,0,0ZM8.6,10.89l-.12.04.02.04s.01.03.02.04c0,.01.01.02.01.02,0,0,0,0,.01.01,0,0,.01,0,.02,0,0,0,.01,0,.02,0,0,0,.01,0,.02,0,0,0,.01,0,.02-.01,0,0,0,0,.01-.02,0,0,0-.01,0-.02,0,0,0-.01,0-.02,0,0,0-.01,0-.02,0-.01,0-.02-.01-.04v-.04s-.01,0-.01,0ZM8.32,11.26l.09-.04.05.09-.09.05-.05-.09h0s0,0,0,0ZM9.01,11.48l.06.09-.26.17s-.03.02-.05.03c-.01,0-.03.01-.04.01-.02,0-.03,0-.04,0-.01,0-.03,0-.04-.01-.01,0-.03-.02-.04-.03-.01-.01-.02-.03-.04-.04-.01-.02-.02-.04-.03-.06,0-.02,0-.04,0-.06,0-.02.01-.04.03-.05.01-.02.03-.03.05-.05h0s.07.08.07.08h0s-.02.02-.03.03c0,0-.01.01-.01.02,0,0,0,.02,0,.02,0,0,0,.02,0,.02,0,0,.01.01.02.02,0,0,.01,0,.02,0,0,0,.02,0,.03,0,.01,0,.03-.01.04-.02l.27-.17h0ZM8.71,11.9l.38-.3.07.09-.39.31-.07-.09h0ZM8.82,12.06l.35-.34.07.08-.09.35.22-.21.07.07c-.12.11-.24.23-.36.34-.02-.03-.05-.05-.07-.08l.09-.34-.22.21-.07-.07h0s0,0,0,0ZM9.48,12.04l.13.12s.03.03.04.04c.01.01.02.02.03.03,0,.01.01.03.02.04,0,.01,0,.03,0,.04,0,.02,0,.03,0,.05,0,.02,0,.03-.01.05,0,.02-.01.03-.03.05-.01.02-.02.03-.04.05-.01.02-.03.03-.04.04-.01.01-.03.02-.04.03-.02,0-.03.02-.05.02-.02,0-.03,0-.05,0-.01,0-.03,0-.04,0-.01,0-.03,0-.04-.01-.01,0-.02-.01-.03-.02-.01,0-.03-.02-.04-.03l-.14-.12.32-.37h0s0,0,0,0ZM9.5,12.18l-.2.23.05.04s.02.02.03.02c0,0,.01,0,.02.01,0,0,.01,0,.02,0,0,0,.01,0,.02,0,0,0,.01,0,.02,0,0,0,.02,0,.03-.01,0,0,.02-.01.03-.02.01,0,.02-.02.03-.04.01-.01.02-.03.03-.04,0-.01.01-.02.02-.03,0,0,0-.02,0-.03,0,0,0-.02,0-.02,0,0,0-.01,0-.02,0,0,0-.01-.01-.02h0s-.01-.01-.02-.02c0,0-.02-.02-.04-.03l-.03-.02h0ZM9.9,12.95l-.09-.06.02-.11-.16-.1-.09.07-.1-.06.43-.31.09.06-.1.52h0s0,0,0,0ZM9.85,12.68l.03-.16-.13.1.1.06ZM9.95,12.97l.22-.43.1.05-.18.35.21.11-.04.08c-.1-.05-.21-.11-.31-.16h0s0,0,0,0ZM10.75,13.11l.03-.08c.07.02.14.04.21.07-.02.06-.04.13-.06.19h0s-.03.01-.05.02c-.02,0-.04,0-.06,0-.02,0-.04,0-.06,0-.02,0-.04,0-.06-.01-.02,0-.05-.02-.07-.03-.02-.01-.04-.03-.05-.04-.02-.02-.03-.03-.04-.05,0-.02-.02-.04-.02-.06,0-.02,0-.04,0-.07,0-.02,0-.04.01-.07,0-.02.02-.05.03-.07.01-.02.03-.04.04-.05.02-.02.03-.03.05-.04.02-.01.04-.02.06-.02.02,0,.04,0,.06,0,.02,0,.04,0,.06.01.03,0,.05.02.08.03.02.01.04.03.05.05.01.02.02.04.03.06,0,.02,0,.04,0,.07h0s-.11,0-.11,0h0s0-.03,0-.04c0-.01,0-.02-.01-.03,0,0-.01-.02-.02-.02,0,0-.02-.01-.03-.02-.02,0-.04,0-.06,0-.02,0-.03,0-.05.02-.02,0-.03.02-.04.04-.01.02-.02.04-.03.06,0,.03-.01.05-.01.07,0,.02,0,.04.01.06,0,.02.02.03.03.04.01.01.03.02.05.03,0,0,.02,0,.03,0,0,0,.02,0,.03,0,.01,0,.02,0,.03,0,0,0,.02,0,.02,0l.02-.05-.11-.03h0s0,0,0,0ZM10.99,13.36l.1-.47.11.02-.08.39.24.05-.02.09c-.11-.02-.23-.05-.34-.07h0s0,0,0,0ZM11.39,13.2s0-.05.01-.07c0-.02.01-.04.02-.06,0-.01.01-.02.02-.03,0-.01.02-.02.03-.03.01,0,.02-.02.03-.02.01,0,.02-.01.03-.02.02,0,.03,0,.05-.01.02,0,.04,0,.06,0,.04,0,.07.01.1.02.03.01.05.03.07.06.02.02.03.05.04.08,0,.03.01.07,0,.11,0,.04-.01.07-.02.1-.01.03-.03.06-.05.08-.02.02-.05.04-.08.05-.03,0-.06.01-.1.01-.04,0-.07-.01-.1-.02-.03-.01-.05-.03-.07-.06-.02-.02-.03-.05-.04-.08,0-.03-.01-.07,0-.11h0ZM11.5,13.21s0,.05,0,.07c0,.02.01.04.02.05.01.01.02.03.04.03.01,0,.03.01.05.01.02,0,.04,0,.05,0,.02,0,.03-.01.04-.03.01-.01.02-.03.03-.05,0-.02.01-.04.01-.07,0-.03,0-.05,0-.07,0-.02-.01-.04-.02-.05-.01-.01-.02-.02-.04-.03-.01,0-.03-.01-.05-.01-.02,0-.04,0-.05,0-.02,0-.03.01-.04.03-.01.01-.02.03-.03.05,0,.02-.01.04-.01.07h0ZM11.91,12.99h.19s.04,0,.05,0c.01,0,.03,0,.04,0,0,0,.02,0,.03,0,0,0,.02,0,.03.01,0,0,.02.01.02.02,0,0,.01.01.02.02,0,0,0,.02.01.03,0,0,0,.02,0,.03,0,.01,0,.02,0,.03,0,.01,0,.02-.01.03,0,.01-.01.02-.02.03,0,0-.01,0-.02.01,0,0,.02,0,.03.01.01,0,.02.02.03.03,0,.01.01.02.02.04,0,.01,0,.03,0,.04,0,.01,0,.02,0,.03,0,.01,0,.02-.01.03,0,.01-.01.02-.02.03,0,0-.02.02-.02.02,0,0-.02.01-.03.02-.01,0-.02,0-.04,0h0s-.02,0-.04,0c-.02,0-.04,0-.08,0h-.17c0-.16,0-.33-.01-.49h0s0,0,0,0ZM12.01,13.08v.1s.06,0,.06,0c.02,0,.03,0,.05,0,.01,0,.02,0,.02,0,0,0,.01,0,.02,0,0,0,.01,0,.01-.01,0,0,0,0,0-.01,0,0,0-.01,0-.02,0,0,0-.01,0-.02,0,0,0,0,0-.01,0,0,0,0-.01,0,0,0-.01,0-.02,0,0,0-.01,0-.03,0-.01,0-.03,0-.05,0h-.05s0,0,0,0ZM12.02,13.27v.12s.09,0,.09,0c.02,0,.03,0,.04,0,.01,0,.02,0,.02,0h0s.01,0,.02,0c0,0,0,0,.01-.01,0,0,0,0,0-.02,0,0,0-.01,0-.02,0,0,0-.01,0-.02,0,0,0-.01,0-.01,0,0,0,0-.01-.01,0,0-.01,0-.02,0,0,0-.02,0-.03,0-.01,0-.03,0-.05,0h-.07s0,0,0,0ZM12.84,13.4l-.11.02-.06-.1-.18.03-.02.11-.12.02c.04-.17.08-.35.12-.52l.11-.02c.09.15.18.31.27.46h0ZM12.62,13.23l-.08-.14-.03.16.11-.02h0ZM12.88,13.38l-.11-.47.11-.03.09.39.24-.06.02.09-.34.08h0ZM13.26,12.78l.1-.04.11.25s.02.03.02.05.01.02.01.03c0,0,.01.01.02.02,0,0,.01,0,.02.01,0,0,.02,0,.03,0,.01,0,.02,0,.03,0,.01,0,.02-.01.03-.02,0,0,.01-.01.02-.02,0,0,0-.01,0-.02,0,0,0-.01,0-.02,0,0,0-.02,0-.03,0-.01-.01-.03-.02-.05l-.11-.25.1-.04.1.24s.02.05.03.07c0,.02.01.04.01.05,0,.01,0,.02,0,.04,0,.01,0,.02,0,.03,0,.01,0,.02-.01.03,0,.01-.01.02-.02.03,0,0-.02.02-.03.03-.01,0-.03.02-.05.02-.02,0-.04.02-.06.02-.02,0-.03,0-.05,0-.01,0-.03,0-.04,0-.01,0-.02,0-.03-.01-.01,0-.02-.01-.03-.02,0,0-.02-.01-.02-.02,0-.01-.02-.03-.03-.05,0-.02-.02-.04-.03-.06l-.1-.24h0s0,0,0,0ZM13.89,13.03l-.23-.43.09-.05.31.18-.14-.27.09-.05c.08.15.15.29.23.44l-.09.05-.31-.18.14.27-.09.05h0s0,0,0,0ZM14.31,12.79l-.27-.41.09-.06h0s.08-.06.08-.06l.31.2-.12-.34.09-.07h0s.25-.26.25-.26l.07.06-.18.19.07.07.17-.17.07.06-.17.17.09.08.19-.19.07.06c-.09.09-.17.18-.26.27-.12-.11-.24-.23-.36-.34l.17.49-.09.07-.42-.27.25.39-.09.06h0s0,0,0,0ZM15.16,12.06l-.38-.3.13-.17s.03-.04.04-.05c.01-.01.03-.02.04-.03.01,0,.02-.01.04-.01.01,0,.03,0,.04,0,.01,0,.03,0,.04,0,.01,0,.02.01.04.02.01.01.03.02.04.04,0,.01.01.03.02.05,0,.02,0,.03,0,.05,0,.01,0,.03-.01.04,0,0,.01,0,.02,0,.01,0,.02,0,.03,0,.01,0,.02,0,.04,0,.02,0,.04,0,.06,0h.12s-.08.12-.08.12h-.13s-.07-.01-.09-.01c0,0-.01,0-.02,0,0,0,0,0-.01,0,0,0,0,0-.01.01,0,0-.01.01-.02.02h0s.16.13.16.13l-.07.09h0s0,0,0,0ZM15,11.8l.04-.05s.03-.03.03-.05c0-.01.01-.02.01-.03,0,0,0-.01,0-.02,0,0,0,0,0-.01h0s0,0,0-.01c0,0,0,0-.01-.01,0,0-.01,0-.02-.01,0,0-.01,0-.02,0,0,0-.01,0-.02,0,0,0-.01,0-.02.01,0,0,0,0-.02.02,0,0-.02.02-.03.04l-.04.06.09.07h0ZM15.3,11.61l.04-.09h0s.03,0,.04,0c.01,0,.02,0,.03,0,0,0,.02,0,.03-.02,0,0,.02-.02.02-.03,0-.01.01-.03.01-.04,0-.01,0-.02,0-.03,0,0,0-.02,0-.02,0,0,0-.01-.02-.02,0,0,0,0-.01,0,0,0,0,0-.01,0,0,0,0,0-.01,0,0,0-.01,0-.02.01,0,0-.01.01-.02.02,0,0-.02.02-.03.04-.02.02-.04.04-.05.05-.02.01-.03.02-.05.03-.02,0-.04,0-.06,0-.02,0-.04,0-.05-.02-.01,0-.02-.01-.03-.02s-.02-.02-.02-.03c0-.01-.01-.02-.01-.04,0-.01,0-.03,0-.04,0-.01,0-.03,0-.05,0-.02.01-.03.02-.05.01-.03.03-.05.05-.07.02-.02.04-.03.06-.04.02,0,.04-.01.06,0,.02,0,.04,0,.06.02h0s-.05.1-.05.1h0s-.02,0-.03,0c0,0-.02,0-.02,0,0,0-.01,0-.02.02,0,0-.01.02-.02.03,0,.01-.01.02-.01.03,0,.01,0,.02,0,.03,0,0,0,0,0,.01,0,0,0,0,.01,0,0,0,0,0,.01,0,0,0,0,0,.01,0h0s.02,0,.03-.02c.01-.01.03-.02.04-.04.02-.02.03-.03.04-.05.01-.01.03-.02.04-.03.01,0,.02-.01.03-.02.01,0,.02,0,.04,0,.01,0,.03,0,.04,0,.01,0,.03,0,.04.02.01,0,.02.02.03.03,0,0,.02.02.03.03,0,.01.01.03.02.04,0,.01,0,.03,0,.05,0,.02,0,.03-.01.05,0,.02-.01.03-.02.05-.01.03-.03.05-.05.07-.02.02-.04.03-.06.04-.02,0-.04.01-.07.01-.02,0-.05,0-.07-.02h0s0,0,0,0h0ZM15.66,11.28l-.44-.21.05-.1h0s.13-.36.13-.36h0s.02-.11.02-.11l.2-.08-.17-.14.02-.13.26.22.2.03-.02.11-.2-.03-.29.12.06.02-.05.13.38.13-.04.1-.38-.13-.05.13h-.01s.37.17.37.17l-.05.1h0Z"/>
        </g>
        <g>
          <path class="cls-2" d="M11.54,10.97v.12h.03c.14.07.28.1.43.1h0c.14,0,.28-.03.43-.09h.03v-.14h-.04s-.05-.03-.07-.05c-.02-.01-.04-.03-.06-.04l-.03-.03s-.01-.03,0-.04c0,0,0,0,0,0l.03-.02s.01,0,.01-.01c0,0,0,0,.01-.01.04-.03.08-.08.11-.13.03-.05.05-.1.05-.14h0s0,0,0,0h0s0-.03,0-.04c0-.01,0-.02,0-.03h0s0,0,0,0c0-.02-.02-.03-.03-.05,0,0,0,0,0,0,.01,0,.03,0,.04,0,0,.01.02.03.02.04h0s0,.04,0,.06h0s0,.01,0,.02h0s0,0,0,.01h0s0,0,0,0c0,0,0,0,0,0h0s0,.01,0,.02h0s0,.01,0,.02h0s0,.01,0,.02h0s0,.01,0,.02h0s0,.01,0,.02h0s0,.01-.01.02h0s0,.01-.01.02h0s0,.01-.01.02h0s0,.01-.01.02h0s-.01.02-.02.02h0s-.01.01-.02.02h0s-.02.02-.02.02h0s-.01.01-.02.02h0s-.01,0-.02.01c0,0-.01.01-.02.02h0s0,0,0,0l-.03.02h0s0,0,0,0l.03.03s.08.05.12.07l.05.02h0v.16h0s0,0,0,0h-.03s0,.01,0,.01h-.02s-.02.02-.04.02h0c-.08.03-.17.05-.26.07h0s-.08,0-.12,0h0s-.05,0-.07,0h0s0,0,0,0c-.04,0-.08,0-.12-.01h0s-.04,0-.06-.01h0s-.03,0-.05-.01h0s-.02,0-.03,0h0s-.03,0-.05-.01h0s-.03-.01-.04-.02h0s-.03-.01-.04-.02h-.03s0-.01,0-.01h0s-.02-.01-.02-.01h0v-.15h0s.05-.03.05-.03c.04-.02.09-.04.12-.07l.03-.03h0s0,0,0,0h0s0,0,0,0l-.02-.02h0s0,0,0,0c0,0-.01-.01-.02-.02h0s0,0,0,0c0,0-.01,0-.02-.02h0s-.01-.01-.02-.02h0s-.02-.02-.02-.02h0s-.01-.01-.02-.02h0s-.01-.02-.02-.03h0s0-.01-.01-.02h0s-.01-.02-.02-.03h0s0-.01-.01-.02h0s0-.02-.01-.03h0s0-.01,0-.02h0s0-.02,0-.03h0s0-.01,0-.02h0s0-.01,0-.02h0s0,0,0,0h0s0,0,0,0c0,0,0-.01,0-.02h0s0-.02,0-.03h0s0,0,0,0h0s0-.03,0-.04h0s0-.01,0-.02c0,0,.02,0,.03,0,0,0,0,.01,0,.02h0s0,.02,0,.04c0,.01,0,.03,0,.04h0s0,0,0,0h0s.03.1.05.14c.03.05.07.1.11.13,0,0,0,0,.01.01,0,0,0,0,.01.01l.03.02s.02.03,0,.04c0,0,0,0,0,0l-.03.03s-.04.03-.06.04c-.02.01-.05.03-.07.03h-.04s0,.01,0,.01Z"/>
          <path class="cls-6" d="M12.53,10.43s.01,0,.02,0c.04.01.09.02.13.02.04,0,.09,0,.13-.02h0s.09-.02.14-.02c.05,0,.09,0,.14.02,0,0,0,0,0,.01,0,0,0,0-.01,0-.05-.02-.09-.02-.13-.02-.04,0-.09,0-.13.02h0s-.09.02-.14.02c-.05,0-.09,0-.14-.02h0s0,0,0,0c0,0,0-.01,0-.02h0ZM10.92,10.45s0,0,0-.01c0,0,0,0,.01,0,.05.02.09.02.13.02.04,0,.09,0,.13-.02h0s.09-.02.14-.02c.05,0,.09,0,.14.02h0s0,0,0,0c0,0,0,0,0,0h0s0,0,0,0h0s0,0,0,.01c0,0,0,0-.01,0h0s-.09-.02-.13-.02c-.04,0-.09,0-.13.02-.04.02-.09.02-.14.02-.05,0-.09,0-.14-.02h0ZM12.53,10.48s.01,0,.02,0c.04.01.09.02.13.02.04,0,.09,0,.13-.02h0s.09-.02.14-.02c.05,0,.09,0,.14.02,0,0,0,0,0,.01,0,0,0,0-.01,0-.05-.02-.09-.02-.13-.02-.04,0-.09,0-.13.02h0s-.09.02-.14.02c-.05,0-.09,0-.14-.02h0s-.01,0-.02,0c0,0,0,0,0,0h0s0,0,0,0c0,0,0,0,0,0h0ZM10.92,10.5s0,0,0-.01c0,0,0,0,.01,0,.05.02.09.02.13.02.04,0,.09,0,.13-.02h0s.09-.02.14-.02c.05,0,.09,0,.14.02h0s0,0,.01,0h0s0,0,0,0c0,0,0,.01,0,.02,0,0-.01,0-.02,0h0s-.09-.02-.13-.02c-.04,0-.09,0-.13.02-.04.02-.09.02-.14.02-.05,0-.09,0-.14-.02h0ZM12.51,10.53s.02,0,.03,0c.04.01.09.02.13.02.04,0,.09,0,.13-.02h0s.09-.02.14-.02c.05,0,.09,0,.14.02,0,0,0,0,0,.01,0,0,0,0-.01,0-.05-.02-.09-.02-.13-.02-.04,0-.09,0-.13.02h0s-.09.02-.14.02c-.05,0-.09,0-.14-.02h0s-.02,0-.03,0c0,0,0,0,0-.01h0s0,0,0,0ZM10.92,10.56s0,0,0-.01c0,0,0,0,.01,0,.05.02.09.02.13.02.04,0,.09,0,.13-.02h0s.09-.02.14-.02c.05,0,.09,0,.14.02h0s.02,0,.03,0c0,0,0,0,0,0h0s0,0,0,.01c-.01,0-.03,0-.04-.01h0s-.09-.02-.13-.02c-.04,0-.09,0-.13.02-.04.02-.09.02-.14.02-.05,0-.09,0-.14-.02h0ZM12.5,10.58s.03,0,.05.01c.04.01.09.02.13.02.04,0,.09,0,.13-.02h0s.09-.02.14-.02c.05,0,.09,0,.14.02,0,0,0,0,0,.01,0,0,0,0-.01,0-.05-.02-.09-.02-.13-.02-.04,0-.09,0-.13.02h0s-.09.02-.14.02c-.05,0-.09,0-.14-.02h0s-.03-.01-.05-.01h0s0,0,0,0c0,0,0-.01,0-.02h0ZM10.92,10.62s0,0,0-.01c0,0,0,0,.01,0,.05.02.09.02.13.02.04,0,.09,0,.13-.02h0s.09-.02.14-.02c.05,0,.09,0,.14.02h0s.04.01.05.01c0,0,0,.01,0,.02h0s0,0,0,0c-.02,0-.05,0-.07-.02h0s-.09-.02-.13-.02c-.04,0-.09,0-.13.02-.04.02-.09.02-.14.02-.05,0-.09,0-.14-.02h0ZM12.47,10.63s.05,0,.07.02c.04.01.09.02.13.02.04,0,.09,0,.13-.02h0s.09-.02.14-.02c.05,0,.09,0,.14.02,0,0,0,0,0,.01,0,0,0,0-.01,0-.05-.02-.09-.02-.13-.02-.04,0-.09,0-.13.02h0s-.09.02-.14.02c-.05,0-.09,0-.14-.02h0s-.05-.02-.08-.02c0,0,0,0,0-.01h0s0,0,0,0h0ZM10.92,10.67s0,0,0-.01c0,0,0,0,.01,0,.05.02.09.02.13.02.04,0,.09,0,.13-.02h0s.09-.02.14-.02c.05,0,.09,0,.14.02h0s.06.02.09.02c0,0,0,0,0,0h0s0,.01.01.02c-.04,0-.07-.01-.11-.02h0s-.09-.02-.13-.02c-.04,0-.09,0-.13.02-.04.02-.09.02-.14.02-.05,0-.09,0-.14-.02h0ZM12.44,10.69s.07.01.1.02c.04.01.09.02.13.02.04,0,.09,0,.13-.02h0s.09-.02.14-.02c.05,0,.09,0,.14.02,0,0,0,0,0,.01,0,0,0,0-.01,0-.05-.02-.09-.02-.13-.02-.04,0-.09,0-.13.02h0s-.09.02-.14.02c-.05,0-.09,0-.14-.02h0s-.08-.02-.11-.02h0s0,0,0,0c0,0,0-.01.01-.02h0ZM10.92,10.73s0,0,0-.01c0,0,0,0,.01,0,.05.02.09.02.13.02.04,0,.09,0,.13-.02h0s.09-.02.14-.02c.05,0,.09,0,.14.02h0s.09.02.13.02h0s.01.01.02.02h0s0,0,0,0c0,0-.01,0-.02,0-.05,0-.09,0-.14-.02h0s-.09-.02-.13-.02c-.04,0-.09,0-.13.02-.04.02-.09.02-.14.02-.05,0-.09,0-.14-.02h0ZM12.39,10.74s0,0,.01,0c.05,0,.09,0,.14.02.04.01.09.02.13.02.04,0,.09,0,.13-.02h0s.09-.02.14-.02c.05,0,.09,0,.14.02,0,0,0,0,0,.01,0,0,0,0-.01,0-.05-.02-.09-.02-.13-.02-.04,0-.09,0-.13.02h0s-.09.02-.14.02c-.05,0-.09,0-.14-.02h0s-.09-.02-.13-.02c-.01,0-.02,0-.03,0,0,0,.01,0,.02-.01h0s0,0,0,0h0ZM10.92,10.78s0,0,0-.01c0,0,0,0,.01,0,.05.02.09.02.13.02.04,0,.09,0,.13-.02h0s.09-.02.14-.02c.05,0,.09,0,.14.02h0s.09.02.13.02c.02,0,.04,0,.06,0,0,0,0,0,0,0h0s.01,0,.02.01c-.03,0-.05,0-.08,0-.05,0-.09,0-.14-.02h0s-.09-.02-.13-.02c-.04,0-.09,0-.13.02-.04.02-.09.02-.14.02-.05,0-.09,0-.14-.02h0ZM12.31,10.81s.06-.01.09-.01c.05,0,.09,0,.14.02.04.01.09.02.13.02.04,0,.09,0,.13-.02h0s.09-.02.14-.02c.05,0,.09,0,.14.02,0,0,0,0,0,.01,0,0,0,0-.01,0-.05-.02-.09-.02-.13-.02-.04,0-.09,0-.13.02h0s-.09.02-.14.02c-.05,0-.09,0-.14-.02h0s-.09-.02-.13-.02c-.04,0-.08,0-.11.02h0s0,0,0,0h0s.03-.02.03-.02h0ZM10.92,10.84s0,0,0-.01c0,0,0,0,.01,0,.05.02.09.02.13.02.04,0,.09,0,.13-.02h0s.09-.02.14-.02c.05,0,.09,0,.14.02h0s.09.02.13.02c.04,0,.08,0,.12-.02h0s0,0,0,0h0s-.03.02-.03.02c-.03,0-.06.01-.09.01-.05,0-.09,0-.14-.02h0s-.09-.02-.13-.02c-.04,0-.09,0-.13.02-.04.02-.09.02-.14.02-.05,0-.09,0-.14-.02h0ZM12.32,10.86s.06,0,.08,0c.05,0,.09,0,.14.02.04.01.09.02.13.02.04,0,.09,0,.13-.02h0s.09-.02.14-.02c.05,0,.09,0,.14.02,0,0,0,0,0,.01,0,0,0,0-.01,0-.05-.02-.09-.02-.13-.02-.04,0-.09,0-.13.02h0s-.09.02-.14.02c-.05,0-.09,0-.14-.02h0s-.09-.02-.13-.02c-.02,0-.04,0-.06,0,0,0-.01-.01-.02-.02h0ZM10.92,10.89s0,0,0-.01c0,0,0,0,.01,0,.05.02.09.02.13.02.04,0,.09,0,.13-.02h0s.09-.02.14-.02c.05,0,.09,0,.14.02h0s.09.02.13.02c.01,0,.02,0,.03,0-.01,0-.03.01-.04.02-.04,0-.08,0-.13-.02h0s-.09-.02-.13-.02c-.04,0-.09,0-.13.02-.04.02-.09.02-.14.02-.05,0-.09,0-.14-.02h0ZM12.39,10.91s0,0,.01,0c.05,0,.09,0,.14.02.04.01.09.02.13.02.04,0,.09,0,.13-.02h0s.09-.02.14-.02c.05,0,.09,0,.14.02,0,0,0,0,0,.01,0,0,0,0-.01,0-.05-.02-.09-.02-.13-.02-.04,0-.09,0-.13.02h0s-.09.02-.14.02c-.05,0-.09,0-.14-.02h0s-.06-.02-.1-.02h0s-.03-.01-.04-.02h0ZM10.92,10.95s0,0,0-.01c0,0,0,0,.01,0,.05.02.09.02.13.02.04,0,.09,0,.13-.02h0s.09-.02.14-.02c.05,0,.09,0,.14.02h0s.04.01.05.01h0v.02s-.04,0-.05-.01h0s-.09-.02-.13-.02c-.04,0-.09,0-.13.02-.04.02-.09.02-.14.02-.05,0-.09,0-.14-.02h0ZM12.49,10.97s.04,0,.06.02c.04.01.09.02.13.02.04,0,.09,0,.13-.02h0s.09-.02.14-.02c.05,0,.09,0,.14.02,0,0,0,0,0,.01,0,0,0,0-.01,0-.05-.02-.09-.02-.13-.02-.04,0-.09,0-.13.02h0s-.09.02-.14.02c-.05,0-.09,0-.14-.02h0s-.03-.01-.05-.01v-.02h0s0,0,0,0ZM10.92,11.01s0,0,0-.01c0,0,0,0,.01,0,.05.02.09.02.13.02.04,0,.09,0,.13-.02h0s.09-.02.14-.02c.05,0,.09,0,.14.02h0s.03.01.05.01h0v.02s-.04,0-.05-.01h0s-.09-.02-.13-.02c-.04,0-.09,0-.13.02-.04.02-.09.02-.14.02-.05,0-.09,0-.14-.02h0ZM12.49,11.03s.04,0,.06.02c.04.01.09.02.13.02.04,0,.09,0,.13-.02h0s.09-.02.14-.02c.05,0,.09,0,.14.02,0,0,0,0,0,.01,0,0,0,0-.01,0-.05-.02-.09-.02-.13-.02-.04,0-.09,0-.13.02h0s-.09.02-.14.02c-.05,0-.09,0-.14-.02h0s-.03-.01-.05-.01h0v-.02h0ZM10.92,11.06s0,0,0-.01c0,0,0,0,.01,0,.05.02.09.02.13.02.04,0,.09,0,.13-.02h0s.09-.02.14-.02c.05,0,.09,0,.14.02h0s.03.01.05.01h0v.02s-.04,0-.05-.01h0s-.09-.02-.13-.02c-.04,0-.09,0-.13.02-.04.02-.09.02-.14.02-.05,0-.09,0-.14-.02h0ZM12.49,11.08s.04,0,.06.02c.04.01.09.02.13.02.04,0,.09,0,.13-.02h0s.09-.02.14-.02c.05,0,.09,0,.14.02,0,0,0,0,0,.01,0,0,0,0-.01,0-.05-.02-.09-.02-.13-.02-.04,0-.09,0-.13.02h0s-.09.02-.14.02c-.05,0-.09,0-.14-.02h0s-.03-.01-.05-.01v-.02h0ZM10.92,11.12s0,0,0-.01c0,0,0,0,.01,0,.05.02.09.02.13.02.04,0,.09,0,.13-.02h0s.09-.02.14-.02c.05,0,.09,0,.14.02h0s.05.01.08.02h.02s.02.02.03.02h0s-.09,0-.14-.02h0s-.09-.02-.13-.02c-.04,0-.09,0-.13.02-.04.02-.09.02-.14.02-.05,0-.09,0-.14-.02h0ZM12.43,11.13s.08,0,.12.02c.04.01.09.02.13.02.04,0,.09,0,.13-.02h0s.09-.02.14-.02c.05,0,.09,0,.14.02,0,0,0,0,0,.01,0,0,0,0-.01,0-.05-.02-.09-.02-.13-.02-.04,0-.09,0-.13.02h0s-.09.02-.14.02c-.05,0-.09,0-.14-.02h0s-.09-.02-.13-.02c-.01,0-.02,0-.03,0,0,0,.02,0,.03,0h0s.02,0,.03-.01h0ZM10.92,11.17s0,0,0-.01,0,0,.01,0c.05.02.09.02.13.02.04,0,.09,0,.13-.02h0s.09-.02.14-.02c.05,0,.09,0,.14.02h0s.09.02.13.02c.03,0,.05,0,.08,0,0,0,.01,0,.02,0h0s.01,0,.02,0c-.04.01-.08.02-.12.02-.05,0-.09,0-.14-.02h0s-.09-.02-.13-.02c-.04,0-.09,0-.13.02-.04.02-.09.02-.14.02-.05,0-.09,0-.14-.02h0ZM12.03,11.22s.07.02.11.02c.04,0,.09,0,.13-.02h0s.09-.02.14-.02c.05,0,.09,0,.14.02.04.01.09.02.13.02.04,0,.09,0,.13-.02h0s.09-.02.14-.02c.05,0,.09,0,.14.02,0,0,0,0,0,.01,0,0,0,0-.01,0-.05-.02-.09-.02-.13-.02-.04,0-.09,0-.13.02h0s-.09.02-.14.02c-.05,0-.09,0-.14-.02h0s-.09-.02-.13-.02c-.04,0-.09,0-.13.02-.05.02-.09.02-.14.02-.05,0-.09,0-.14-.02h0s-.02,0-.04-.01h0s0,0,0,0h0s.04,0,.07,0h0ZM10.92,11.23s0,0,0-.01c0,0,0,0,.01,0,.05.02.09.02.13.02.04,0,.09,0,.13-.02h0s.09-.02.14-.02c.05,0,.09,0,.14.02h0s.09.02.13.02c.04,0,.09,0,.13-.02h0s.04-.01.05-.02c.02,0,.04,0,.06.01h0s0,0,0,0c-.04,0-.07,0-.11.02-.05.02-.09.02-.14.02-.05,0-.09,0-.14-.02h0s-.09-.02-.13-.02c-.04,0-.09,0-.13.02-.04.02-.09.02-.14.02-.05,0-.09,0-.14-.02ZM12.5,10.36s.03,0,.04.01c.04.01.09.02.13.02.04,0,.09,0,.13-.02h0s.09-.02.14-.02c.05,0,.09,0,.14.02,0,0,0,0,0,.01,0,0,0,0-.01,0-.05-.02-.09-.02-.13-.02-.04,0-.09,0-.13.02h0s-.09.02-.14.02c-.05,0-.09,0-.14-.02h0s-.02,0-.02,0c0,0,0-.02-.01-.02h0ZM10.92,10.39s0,0,0-.01c0,0,0,0,.01,0,.05.02.09.02.13.02.04,0,.09,0,.13-.02h0s.09-.02.14-.02c.05,0,.09,0,.14.02h0s.02,0,.02,0c0,0,0,.01,0,.02,0,0-.01,0-.02,0h0s-.09-.02-.13-.02c-.04,0-.09,0-.13.02-.04.02-.09.02-.14.02-.05,0-.09,0-.14-.02h0Z"/>
        </g>
        <g>
          <polygon class="cls-2" points="11.98 8.35 11.98 8.35 11.98 8.35 11.98 8.35"/>
          <path class="cls-3" d="M14.01,7.77c-.06.06-.11.12-.19.13.15,0,.23-.19.35-.21.02,0,.04,0,.05.02,0,0,0,0-.01,0-.02.01-.03.03-.02.06,0,.02.02.04.04.06.02-.02.03-.04.04-.06.01-.02,0-.05-.02-.06,0,0-.01,0-.02,0,0-.01,0-.02-.02-.03.01,0,.03-.01.05,0,0,0,0,.01,0,.02,0,.03.03.05.06.04.03,0,.06-.02.08-.03-.02-.02-.04-.05-.06-.06-.03-.02-.06-.01-.07.01,0,0,0,.01,0,.02,0,0-.02,0-.03,0,.01,0,.01-.02.01-.03,0,0,.01,0,.02-.01.02-.02.02-.05,0-.07-.02-.02-.04-.03-.06-.04-.01.02-.02.05-.02.08,0,.03.02.05.04.05,0,0,0,0,.01,0,0,.01,0,.02-.02.03-.01,0-.04,0-.05,0-.06.02-.1.04-.15.09h0Z"/>
          <g>
            <path class="cls-3" d="M13.45,8.62s.15-.16.23-.15c.02,0,.04.02.05.04h.01s-.02-.04-.04-.05c.02-.01.06-.02.08,0h0s0-.01,0-.01c-.02,0-.03,0-.05,0,.02-.02.02-.04.02-.05h-.01s-.03.06-.06.06c-.06,0-.18.03-.24.11v.06l.02.02h0Z"/>
            <path class="cls-3" d="M14.02,8.47s-.07-.07-.11-.09c-.04-.02-.09,0-.12.03-.01.02-.02.05,0,.07.02.05.06.07.11.06.05-.01.09-.04.13-.07h0Z"/>
            <path class="cls-3" d="M13.74,8.7s.05-.07.06-.1c.01-.04,0-.08-.04-.09-.02,0-.04,0-.06,0-.03.02-.05.06-.03.1.02.04.04.07.07.1h0Z"/>
            <path class="cls-3" d="M13.66,8.18s-.02.08-.02.13c0,.04.04.07.08.07.02,0,.04-.01.06-.03.03-.03.02-.08,0-.11-.03-.03-.07-.05-.11-.06h0Z"/>
          </g>
          <g>
            <path class="cls-3" d="M10.56,8.92s-.15-.15-.23-.14c-.02,0-.04.02-.05.04h-.01s.02-.04.03-.05c-.02,0-.06-.02-.08,0h0s0-.01,0-.01c.01,0,.03,0,.05,0-.02-.02-.02-.03-.02-.05h.01s.03.06.06.06c.06,0,.18.02.25.1v.06s-.01.02-.01.02h0Z"/>
            <path class="cls-3" d="M9.99,8.79s.06-.07.11-.1c.04-.03.09-.01.12.03.01.02.02.05.01.07-.01.05-.06.07-.11.06-.05,0-.09-.03-.13-.06h0Z"/>
            <path class="cls-3" d="M10.28,9.01s-.05-.06-.06-.1c-.01-.04,0-.08.04-.1.02,0,.04,0,.06,0,.04.02.05.06.03.1-.01.04-.04.07-.07.1Z"/>
            <path class="cls-3" d="M10.35,8.49s.03.08.02.13c0,.04-.04.08-.08.08-.02,0-.04,0-.06-.03-.03-.03-.03-.08,0-.11.03-.03.07-.05.11-.07Z"/>
          </g>
          <g>
            <path class="cls-3" d="M13.43,7.96c.08-.03.15-.04.25-.05.16-.02.21-.18.12-.21h0s.04.01.05.04c0-.05,0-.1-.03-.13h0s.03.02.04.05c0-.03.01-.05.02-.06h0s-.02.04-.02.07c0,0,0,.03,0,.05,0-.02.03-.03.04-.04h0s-.04.06-.05.11c-.02.07-.04.11-.11.14.07,0,.14.03.2.07.03.02.06.02.09,0h0s-.02.04-.05.04c.02.01.03.02.04.04h0s-.05-.03-.07-.03c.01.02.01.05,0,.07h0c.02-.06-.04-.1-.11-.12-.15-.04-.3,0-.43.06v-.06s0,0,0,0Z"/>
            <path class="cls-3" d="M14.21,8.23s0-.1-.03-.14c-.02-.05-.07-.06-.11-.05-.02,0-.04.03-.05.05-.01.05,0,.09.05.11.04.02.09.03.14.02h0Z"/>
            <path class="cls-3" d="M14.13,7.8s-.07.04-.1.07c-.03.03-.03.07,0,.1.01.02.03.02.05.02.04,0,.07-.03.07-.07,0-.04,0-.08-.02-.12h0Z"/>
            <path class="cls-3" d="M13.82,8.24s.09,0,.13-.03c.04-.02.06-.06.04-.1,0-.02-.02-.04-.05-.05-.04-.01-.08,0-.1.05-.02.04-.02.09-.02.13h0Z"/>
            <path class="cls-3" d="M14.08,7.64s-.06-.04-.09-.04c-.03,0-.06.01-.07.04,0,.02,0,.03,0,.05.02.03.05.03.08.02.03-.02.05-.04.07-.07h0Z"/>
            <path class="cls-3" d="M13.63,7.71s.05-.05.08-.07c.03-.02.07,0,.08.02,0,.02.01.03,0,.05-.01.03-.04.05-.08.04-.03,0-.06-.02-.09-.04h0Z"/>
            <path class="cls-3" d="M13.69,7.5s.07,0,.1,0c.03,0,.05.04.05.07,0,.02-.01.03-.03.04-.03.02-.06,0-.08-.02-.02-.03-.03-.06-.04-.09h0Z"/>
            <path class="cls-3" d="M13.96,7.46s-.06.02-.08.04c-.02.02-.03.05,0,.08.01.01.02.02.04.02.03,0,.05-.02.06-.05,0-.03,0-.06-.01-.09Z"/>
          </g>
          <g>
            <path class="cls-3" d="M10.02,7.8c.06.06.11.13.19.15-.15,0-.22-.21-.35-.23-.02,0-.04,0-.05.02,0,0,0,0,.01,0,.02.01.03.04.02.06,0,.02-.03.04-.04.06-.02-.02-.03-.04-.04-.06,0-.03,0-.05.02-.06,0,0,.01,0,.02,0,0-.01,0-.02.02-.03-.01,0-.04-.01-.05,0,0,0,0,.01,0,.02,0,.03-.04.05-.07.04-.03,0-.06-.02-.08-.04.02-.02.04-.05.07-.06.03-.02.06,0,.08.02,0,0,0,.01,0,.02,0,0,.02,0,.03,0-.01-.01-.01-.02-.01-.03,0,0-.01,0-.02-.01-.02-.02-.02-.05,0-.07.02-.02.04-.03.07-.04,0,.03.02.05.01.08,0,.03-.02.05-.05.05,0,0,0,0-.01,0,0,.01,0,.02.02.03.01,0,.04,0,.05.01.07.02.1.05.15.1h0Z"/>
            <g>
              <path class="cls-3" d="M10.56,8.01c-.06-.02-.12-.03-.21-.05-.16-.03-.21-.2-.11-.23h0s-.04.01-.06.04c0-.05,0-.1.04-.14h0s-.03.02-.04.05c0-.03,0-.05-.02-.06h0s.02.04.02.07c0,0,0,.03,0,.06,0-.02-.03-.04-.04-.05h0s.04.07.05.11c.01.07.04.12.1.15-.07,0-.15.02-.21.06-.03.02-.07.02-.09-.01h0s.02.04.05.04c-.02.01-.03.02-.04.04h0s.05-.03.08-.03c-.01.02-.01.05,0,.07h0c-.01-.07.05-.1.11-.12.14-.03.27,0,.39.06v-.06h0Z"/>
              <path class="cls-3" d="M9.79,8.26s.01-.1.04-.14c.02-.05.07-.06.12-.04.02.01.04.03.05.06.01.05-.01.09-.06.11-.05.02-.1.02-.15.02h0Z"/>
              <path class="cls-3" d="M9.9,7.82s.07.04.1.07c.03.03.03.08,0,.1-.02.01-.04.02-.06.02-.04,0-.07-.04-.07-.08,0-.04.01-.08.03-.12h0Z"/>
              <path class="cls-3" d="M10.2,8.29s-.09-.01-.13-.03c-.04-.02-.06-.07-.04-.11.01-.02.03-.04.05-.04.04-.01.09,0,.1.05.02.04.02.09.02.13Z"/>
              <path class="cls-3" d="M9.96,7.66s.06-.03.1-.04c.04,0,.06.02.07.05,0,.02,0,.03-.01.05-.02.03-.06.03-.09.01-.03-.02-.05-.05-.07-.07h0Z"/>
              <path class="cls-3" d="M10.42,7.76s-.04-.06-.07-.07c-.03-.02-.07-.01-.09.02-.01.02-.01.03,0,.05,0,.03.04.05.08.05.03,0,.07-.02.1-.04h0Z"/>
              <path class="cls-3" d="M10.37,7.54s-.07-.01-.1,0c-.04,0-.06.04-.05.07,0,.02.01.03.03.04.03.02.06.01.09-.02.02-.03.03-.06.04-.09Z"/>
              <path class="cls-3" d="M10.1,7.48s.06.03.08.05c.02.02.02.06,0,.08-.01.01-.03.02-.04.02-.03,0-.05-.02-.06-.06,0-.03,0-.06.02-.09Z"/>
            </g>
          </g>
          <g>
            <path class="cls-3" d="M13.32,7.75s.1-.18.06-.25c0-.02-.03-.03-.05-.03h0s.04,0,.05,0c0-.02,0-.06-.02-.08h.01s0,0,0,0c.01.01.02.02.02.05.01-.02.03-.03.04-.03h0s-.04.06-.03.08c.02.05.03.17-.02.25l-.05.02h-.02s0,0,0,0Z"/>
            <path class="cls-3" d="M13.28,7.19s.09.04.12.07c.04.03.04.08.01.12-.02.02-.04.03-.06.03-.05,0-.08-.03-.09-.08,0-.04,0-.09.02-.14h0Z"/>
            <path class="cls-3" d="M13.16,7.51s.04-.07.07-.09c.03-.02.07-.02.1,0,.01.02.02.03.02.05,0,.04-.04.06-.08.06-.04,0-.08-.02-.11-.04Z"/>
            <path class="cls-3" d="M13.65,7.43s-.07.05-.11.06c-.04.01-.08-.01-.09-.05,0-.02,0-.04,0-.06.02-.03.06-.05.1-.03.04.02.07.05.09.08h0Z"/>
          </g>
          <g>
            <path class="cls-3" d="M10.91,7.61s-.05-.17-.12-.2c-.02,0-.04,0-.05,0h0s.03-.03.04-.03c-.01-.01-.03-.04-.06-.04h0s0-.01,0-.01c.01,0,.03,0,.04.02,0-.02,0-.03,0-.05h0s0,.06.02.07c.05.02.13.09.15.17l-.02.04h-.02s0,0,0,0Z"/>
            <path class="cls-3" d="M10.53,7.29s.08-.03.12-.03c.04,0,.07.03.08.07,0,.02,0,.04-.02.06-.03.03-.07.03-.1,0-.03-.02-.06-.06-.07-.1Z"/>
            <path class="cls-3" d="M10.66,7.56s-.01-.07,0-.1c0-.04.03-.06.07-.06.02,0,.03,0,.04.02.02.03.02.06-.01.09-.02.02-.06.04-.09.05h0Z"/>
            <path class="cls-3" d="M10.91,7.2s-.01.07-.03.1c-.02.03-.06.04-.09.03-.02,0-.03-.02-.03-.04,0-.03.01-.07.05-.08.03-.01.07-.01.11,0Z"/>
          </g>
          <path class="cls-3" d="M12.99,7.62c.07-.07.08-.19.02-.27-.02-.02-.04-.03-.07-.02,0,0,0,0,0,.01.01.03,0,.06-.03.07-.03.01-.06.02-.09.02,0-.03,0-.06.01-.09.01-.03.04-.04.07-.04,0,0,.01,0,.02.01.02,0,.04,0,.06,0-.02-.04-.05-.06-.1-.07,0,0,0,0,0,.01,0,.03-.04.04-.07.03-.03,0-.05-.02-.08-.04.02-.02.04-.04.07-.06.03-.01.06,0,.07.02,0,0,0,.01,0,.02.02,0,.03,0,.06.02-.01-.02-.02-.03-.02-.05,0,0-.01,0-.02,0-.03,0-.04-.03-.04-.06,0-.03.01-.05.03-.07.02.01.04.03.06.05.02.02.01.05,0,.07,0,0,0,0-.01,0,0,.01,0,.03.02.05,0,0,.02.02.03.04,0-.02,0-.04,0-.05,0,0-.01-.01-.01-.02-.01-.03,0-.06.02-.07.02-.02.05-.02.08-.03,0,.03,0,.06,0,.09,0,.03-.04.04-.06.04,0,0,0,0-.01,0-.01.05,0,.06.02.1.05.1.05.19-.03.29h-.02s0-.01,0-.01Z"/>
          <path class="cls-3" d="M11.09,7.6c-.06-.05-.07-.14-.03-.21.01-.02.03-.03.05-.02,0,0,0,0,0,0,0,.02,0,.05.02.06.02.01.05.01.07.01,0-.02,0-.05-.01-.07,0-.02-.03-.03-.05-.02,0,0-.01,0-.02.01-.02,0-.03,0-.05,0,.02-.03.04-.05.07-.06,0,0,0,0,0,.01,0,.02.03.03.05.02.02,0,.04-.02.06-.04-.02-.02-.03-.03-.06-.04-.02,0-.05,0-.06.02,0,0,0,.01,0,.02-.02,0-.03,0-.04.01.01-.02.01-.03.01-.04,0,0,0,0,.01,0,.02,0,.03-.02.03-.05,0-.02-.01-.04-.02-.06-.02.01-.03.03-.04.04-.01.02,0,.04,0,.05,0,0,0,0,.01,0,0,0,0,.02-.02.04,0,0-.01.02-.02.03,0-.01,0-.03,0-.04,0,0,0,0,.01-.01,0-.02,0-.04-.02-.05-.02-.01-.04-.02-.07-.02,0,.02,0,.05.01.07,0,.02.03.03.05.03,0,0,0,0,0,0,.01.04,0,.04-.01.08-.03.08-.03.15.04.22h.01s0,0,0,0Z"/>
          <path class="cls-2" d="M12.31,7.08c.09-.01.14-.06.27-.06.02,0,.05,0,.05-.03,0,0,0,0-.01,0-.03,0-.04-.03-.04-.06,0-.03.01-.05.03-.08.02.01.05.03.06.06.02.02.01.05,0,.07,0,0-.01,0-.02,0,0,.01,0,.02-.01.03.01,0,.04,0,.06,0,0,0,0-.01,0-.02,0-.03.03-.06.06-.06.03,0,.07,0,.1.02-.01.03-.03.06-.05.08-.02.02-.06.02-.08,0,0,0,0-.01-.01-.02,0,0-.02.01-.03.01.01,0,.02.02.02.03,0,0,.02,0,.02,0,.02.02.03.05.02.07-.01.03-.04.05-.06.06-.02-.02-.03-.05-.04-.08,0-.03.01-.06.04-.06,0,0,0,0,.01,0,0-.02-.02-.02-.03-.03-.01,0-.04,0-.06,0-.12,0-.17.05-.27.05Z"/>
          <path class="cls-2" d="M11.58,7.07c-.08.02-.11.02-.16.02-.02,0-.05,0-.06.03,0,0,.01,0,.02,0,.03,0,.04.04.03.07,0,.03-.02.05-.04.08-.02-.02-.04-.04-.06-.07-.01-.03,0-.06.02-.07,0,0,.01,0,.02,0,0-.01,0-.03.02-.03-.01,0-.04-.01-.06,0,0,0,0,.01,0,.02,0,.03-.03.06-.07.05-.03,0-.07-.02-.1-.03.02-.03.04-.06.07-.08.03-.02.07-.02.09,0,0,0,0,.01.01.02,0,0,.02,0,.04,0-.01-.01-.02-.02-.02-.04,0,0-.02,0-.02-.01-.02-.02-.03-.05,0-.08.02-.02.04-.04.07-.06.01.03.03.06.03.09,0,.03-.02.06-.05.06,0,0,0,0-.01,0,0,.02.01.03.03.03.06.02.15.01.22,0h0Z"/>
          <path class="cls-2" d="M11.95,7.1s-.01-.22-.08-.21c0,0,0,0,0,.01,0,.03,0,.05-.03.06-.02,0-.05,0-.08,0,0-.03,0-.05.02-.07.01-.02.04-.03.06-.02,0,0,0,0,.01.01.01,0,.02,0,.03,0,0-.01-.01-.04-.03-.04,0,0-.01,0-.02.01-.03.01-.06,0-.07-.03-.02-.03-.02-.06-.02-.09.03,0,.06,0,.09.01.03.01.04.04.04.07,0,0,0,.01,0,.02,0,0,.02.01.02.02,0-.02,0-.02.02-.03,0,0,0-.01,0-.02,0-.03.03-.05.06-.04.03,0,.05.01.08.03-.01.02-.03.05-.05.06-.02.02-.05.01-.07,0,0,0,0,0,0,0-.01.01-.01.02-.01.03.01.05.06.07.04.23h0Z"/>
          <path class="cls-3" d="M12.01,7.27s0-.06.03-.11c0,0,.03-.06.11-.06.06,0,.13.04.11.11,0,0-.02,0-.02,0-.05,0-.09.04-.09.09,0,.05,0,.1.02.14.05-.02.09-.04.12-.07.04-.04.04-.09,0-.12,0-.01-.02-.02-.03-.02,0-.02.02-.06-.02-.11.03,0,.06.02.08.04,0,.01-.01.03-.01.04,0,.06.04.11.1.11.06,0,.12,0,.17-.02-.02-.06-.05-.11-.09-.15-.04-.05-.1-.05-.15-.01,0,0-.02.01-.02.02-.01-.01-.03-.03-.07-.05,0,0,.03,0,.06-.04.01,0,.02,0,.04,0,.05,0,.09-.03.1-.09,0-.05,0-.1-.02-.15-.05.02-.1.04-.14.08-.04.04-.04.09-.01.13,0,0,.01.01.02.02,0,0-.02.03-.06.03,0,0-.02,0-.04,0,0,0,.03-.04.01-.09,0,0,.02-.02.02-.03.02-.04,0-.08-.04-.1-.04-.02-.08-.03-.12-.03,0,.04,0,.09.02.13.02.04.06.06.1.05,0,0,.01,0,.02,0,0,0,0,.03,0,.05,0,0,0,.02-.03.02,0,0-.07-.02-.16.03,0,0-.06.02-.1.08,0,0-.02-.08-.13-.12,0,0-.06-.02-.14,0,0,0-.03.01-.04.01,0,0-.01,0-.02-.01,0,0,.02-.02.02-.03.02-.04,0-.08-.03-.11-.04-.02-.08-.03-.12-.04,0,.04,0,.09.01.13.01.04.05.07.1.06,0,0,.01,0,.02,0,0,0,.01.01.02.02-.03.01-.06.04-.06.08-.01,0-.03,0-.04.01-.03.01-.05.04-.05.07,0,.06.05.13.09.17.04-.04.07-.08.08-.12.02-.05,0-.09-.03-.12-.01,0-.02-.01-.03-.02.01-.03.03-.05.06-.06,0,0,.02,0,.04,0-.02.03-.02.06,0,.08,0,0-.01.02-.02.03,0,.04,0,.07.05.09.04.01.08.02.11.01,0-.04-.01-.08-.03-.11-.02-.04-.06-.05-.09-.03,0,0,0,0,0,0-.02-.02-.02-.05,0-.06.05-.05.2.02.2.18,0,0,0,.06,0,.09,0,.17.09.35.17.49l.17-.07c-.12-.14-.2-.28-.2-.51h0Z"/>
          <path class="cls-2" d="M12.28,7.08s.03,0,.06-.04c.01,0,.02,0,.04,0,.05,0,.09-.03.1-.09,0-.05,0-.1-.02-.15-.05.02-.1.04-.14.08-.04.04-.04.09-.01.13,0,0,.01.01.02.02,0,0-.02.03-.06.03h.01Z"/>
          <path class="cls-2" d="M12.23,7.06s.03-.04.01-.09c0,0,.02-.02.02-.03.02-.04,0-.08-.04-.1-.04-.02-.08-.03-.12-.03,0,.04,0,.09.02.13.02.04.06.06.1.05,0,0,.01,0,.02,0,0,0,0,.03,0,.05,0,0,0,.02-.03.02h.03Z"/>
          <path class="cls-2" d="M11.62,7.06s-.01,0-.02-.01c0,0,.02-.02.02-.03.02-.04,0-.08-.03-.11-.04-.02-.08-.03-.12-.04,0,.04,0,.09.01.13.01.04.05.07.1.06,0,0,.01,0,.02,0,0,0,.01.01.02.02h0s0,0,0,0Z"/>
        </g>
        <path class="cls-2" d="M13.1,7.66v1.22l.13.23v-1.24l-.13-.21ZM12,7.7c-.05-.08-.11-.13-.19-.17-.08-.03-.2-.05-.34-.05-.08,0-.17,0-.27.02-.1.01-.2.03-.31.06l-.1.17h-.26v1.66l1.21-.08c.05.02.1.04.15.05.04,0,.08.01.11.02.04,0,.07,0,.11-.02.05-.01.09-.03.15-.05l1.21.08v-1.65h-.26s-.1-.18-.1-.18c-.11-.02-.21-.04-.31-.06-.1-.01-.19-.02-.27-.02-.15,0-.26.02-.34.05-.08.03-.15.09-.19.17h0ZM12,9.31s-.07,0-.11-.02c-.04-.01-.09-.03-.13-.05l-1.16.07v-1.54h.15s-.05.08-.05.08v1.36l1.1-.06c.05.04.12.06.2.06.08,0,.15-.02.2-.06l1.1.06v-1.36l-.05-.08h.15v1.54l-1.16-.07s-.09.04-.13.05c-.04,0-.07.01-.11.02h0ZM10.9,7.66v1.22l-.13.23v-1.24l.13-.21ZM11.23,8.9c.09,0,.17-.01.24-.01.16,0,.28.02.36.06.08.04.12.11.13.21-.07-.01-.12-.04-.15-.07l-1,.07.13-.22c.1-.02.19-.03.28-.04h0ZM12.77,8.9c-.09,0-.17-.01-.24-.01-.16,0-.28.02-.36.06-.08.04-.12.11-.13.21.07-.01.12-.04.15-.07l1,.07-.13-.22c-.1-.02-.19-.03-.28-.04h0ZM12,7.82l.12.35h.37s-.3.24-.3.24l.11.36-.31-.21-.31.21.11-.36-.3-.23h.37s.12-.36.12-.36h0ZM11.57,8.2l.26.2h0l.17-.06-.27.37h0s.27-.18.27-.18v-.18s-.43-.14-.43-.14h0ZM12,7.89l-.11.31.11.15.43-.14h0s-.32,0-.32,0l-.11.15.17.06.09.31h0s-.27-.37-.27-.37v-.45s0,0,0,0h0Z"/>
      </g>
      <g>
        <path class="cls-9" d="M4.17,20.94h-.2l-.05.1h-.08l.26-.48h.09l.08.48h-.08s-.02-.1-.02-.1ZM4.16,20.88l-.03-.22-.12.22h.16ZM4.94,20.71s-.01.05-.03.07c-.02.02-.04.04-.06.05-.03.01-.06.02-.1.02h-.09l-.04.19h-.08l.09-.48h.16s.07,0,.09.02c.02.01.04.03.05.05,0,.02.01.05,0,.07h0ZM4.76,20.78s.05,0,.07-.02c.02-.01.03-.03.03-.06.01-.05-.01-.08-.07-.08h-.09l-.03.16h.09ZM5.12,20.72s.03-.03.05-.04c.02-.01.04-.02.07-.02l-.02.08h-.02s-.06,0-.07.02c-.02.02-.03.04-.04.08l-.04.2h-.08l.07-.38h.08v.05s-.01,0-.01,0ZM5.39,20.61s-.03,0-.03-.01c0,0-.01-.02,0-.04,0-.01,0-.03.02-.04.01,0,.02-.01.04-.01s.02,0,.03.01c0,0,.01.02,0,.04,0,.01,0,.03-.02.04-.01,0-.02.01-.04.01ZM5.42,20.66l-.07.38h-.08l.07-.38h.08ZM5.63,20.97l.17-.31h.08l-.22.38h-.09l-.07-.38h.08l.05.31ZM5.91,20.85s.02-.07.04-.1c.02-.03.05-.05.08-.07.03-.02.06-.02.09-.02.03,0,.05,0,.07.02.02.01.03.03.04.04v-.05h.09l-.07.38h-.08v-.06s-.03.03-.05.04c-.03.01-.05.02-.08.02-.03,0-.06,0-.08-.02-.02-.02-.04-.04-.05-.07,0-.03-.01-.06,0-.1ZM6.21,20.85s0-.05,0-.07c0-.02-.02-.03-.03-.04-.02-.01-.03-.02-.05-.02s-.04,0-.06.01-.04.02-.05.04c-.01.02-.02.04-.03.07,0,.03,0,.05,0,.07,0,.02.02.03.03.04.02.01.03.02.05.02s.04,0,.06-.02c.02-.01.04-.02.05-.04.01-.02.02-.04.03-.07h0ZM6.54,20.73l-.04.21s0,.02,0,.03c0,0,.02,0,.03,0h.05v.07h-.07s-.06,0-.08-.02c-.02-.02-.02-.04-.01-.08l.04-.21h-.04v-.06h.06l.02-.09h.08l-.02.09h.09v.06h-.1ZM7.05,20.84s0,.03-.01.04h-.29s0,.05.02.07c.02.02.04.03.07.03.04,0,.08-.02.1-.05h.08s-.04.06-.08.09-.07.03-.12.03c-.04,0-.07,0-.09-.02-.03-.02-.04-.04-.05-.07-.01-.03-.01-.06,0-.1,0-.04.02-.07.04-.1.02-.03.05-.05.08-.07.03-.02.07-.02.1-.02s.07,0,.09.02c.02.02.04.04.05.07.01.03.01.06,0,.1h0ZM6.97,20.82s0-.05-.02-.07c-.02-.02-.04-.03-.07-.03-.03,0-.05,0-.07.03-.02.02-.04.04-.05.07h.21ZM7.46,20.57l-.06.3s0,.06.01.08c.02.02.04.03.07.03s.06,0,.09-.03c.02-.02.04-.05.04-.08l.06-.3h.08l-.06.3s-.02.07-.04.1c-.02.03-.05.05-.08.06-.03.01-.06.02-.1.02s-.06,0-.09-.02c-.03-.01-.04-.03-.06-.06-.01-.03-.01-.06,0-.1l.06-.3h.08ZM8.05,20.66s.06,0,.08.02c.02.01.04.03.04.05,0,.02,0,.05,0,.09l-.04.22h-.08l.04-.21s0-.06-.01-.08c-.01-.02-.03-.03-.06-.03s-.05,0-.07.03c-.02.02-.03.04-.04.08l-.04.21h-.08l.07-.38h.08v.04s.03-.03.05-.04c.02,0,.04-.01.07-.01h0ZM8.38,20.61s-.03,0-.03-.01c0,0-.01-.02,0-.04,0-.01,0-.03.02-.04.01,0,.02-.01.04-.01s.02,0,.03.01c0,0,.01.02,0,.04,0,.01,0,.03-.02.04-.01,0-.02.01-.04.01ZM8.41,20.66l-.07.38h-.08l.07-.38h.08ZM8.62,20.97l.17-.31h.08l-.22.38h-.09l-.07-.38h.08l.05.31ZM9.27,20.84s0,.03-.01.04h-.29s0,.05.02.07c.02.02.04.03.07.03.04,0,.08-.02.1-.05h.08s-.04.06-.08.09-.07.03-.12.03c-.04,0-.07,0-.09-.02-.03-.02-.04-.04-.05-.07-.01-.03-.01-.06,0-.1,0-.04.02-.07.04-.1.02-.03.05-.05.08-.07.03-.02.07-.02.1-.02s.07,0,.09.02c.02.02.04.04.05.07.01.03.01.06,0,.1h0ZM9.19,20.82s0-.05-.02-.07c-.02-.02-.04-.03-.07-.03-.03,0-.05,0-.07.03-.02.02-.04.04-.05.07h.21ZM9.47,20.72s.03-.03.05-.04c.02-.01.04-.02.07-.02l-.02.08h-.02s-.06,0-.07.02c-.02.02-.03.04-.04.08l-.04.2h-.08l.07-.38h.08v.05s-.01,0-.01,0ZM9.76,21.05s-.06,0-.08-.02c-.02-.01-.04-.03-.05-.04-.01-.02-.01-.04,0-.06h.08s0,.03.02.04c.01.01.03.02.05.02s.04,0,.05-.01c.01,0,.02-.02.02-.03,0-.01,0-.02-.01-.03-.01,0-.03-.01-.06-.02-.03,0-.05-.02-.06-.02-.02,0-.03-.02-.04-.03-.01-.02-.01-.03,0-.06,0-.02.01-.04.03-.06.02-.02.03-.03.06-.04.02,0,.05-.01.08-.01.04,0,.08.01.1.03.02.02.03.05.03.09h-.08s0-.03-.01-.04c-.01-.01-.03-.02-.05-.02s-.04,0-.05.01c-.01,0-.02.02-.02.03,0,.01,0,.02,0,.03,0,0,.01.01.02.02,0,0,.02,0,.04.01.03,0,.05.01.06.02.02,0,.03.02.04.03,0,.01.01.03,0,.06,0,.02-.01.04-.03.06-.02.02-.03.03-.06.04-.02,0-.05.01-.08.01h0ZM10.14,20.61s-.03,0-.03-.01c0,0-.01-.02,0-.04,0-.01,0-.03.02-.04.01,0,.02-.01.04-.01s.02,0,.03.01c0,0,.01.02,0,.04,0,.01,0,.03-.02.04-.01,0-.02.01-.04.01ZM10.17,20.66l-.07.38h-.08l.07-.38h.08ZM10.37,20.73l-.04.21s0,.02,0,.03c0,0,.02,0,.03,0h.05v.07h-.07s-.06,0-.08-.02c-.02-.02-.02-.04-.01-.08l.04-.21h-.04v-.06h.06l.02-.09h.08l-.02.09h.09v.06h-.1ZM10.91,20.66l-.34.55h-.08l.11-.18-.08-.37h.09l.05.29.17-.29h.08ZM11.5,20.71s-.01.05-.03.07c-.02.02-.04.04-.06.05-.03.01-.06.02-.1.02h-.09l-.04.19h-.08l.09-.48h.16s.07,0,.09.02c.02.01.04.03.05.05,0,.02.01.05,0,.07h0ZM11.31,20.78s.05,0,.07-.02c.02-.01.03-.03.03-.06.01-.05-.01-.08-.07-.08h-.09l-.03.16h.09ZM11.67,20.72s.03-.03.05-.04c.02-.01.04-.02.07-.02l-.02.08h-.02s-.06,0-.07.02c-.02.02-.03.04-.04.08l-.04.2h-.08l.07-.38h.08v.05s-.01,0-.01,0ZM11.99,21.05s-.07,0-.09-.02c-.03-.02-.04-.04-.05-.07-.01-.03-.01-.06,0-.1,0-.04.02-.07.04-.1.02-.03.05-.05.08-.07.03-.02.07-.02.1-.02s.07,0,.09.02c.03.02.04.04.06.07.01.03.01.06,0,.1,0,.04-.02.07-.05.1-.02.03-.05.05-.08.07-.03.02-.07.02-.1.02ZM12,20.98s.04,0,.06-.01c.02,0,.04-.02.05-.04.01-.02.02-.04.03-.07,0-.03,0-.05,0-.07,0-.02-.02-.03-.03-.04-.02,0-.03-.01-.05-.01s-.04,0-.06.01c-.02,0-.04.02-.05.04-.01.02-.02.04-.03.07,0,.04,0,.07.01.09.02.02.04.03.07.03ZM12.82,20.66s.06,0,.08.02c.02.01.04.03.04.05,0,.02,0,.05,0,.09l-.04.22h-.08l.04-.21s0-.06-.01-.08c-.01-.02-.03-.03-.06-.03s-.05,0-.07.03c-.02.02-.03.04-.04.08l-.04.21h-.08l.04-.21s0-.06-.01-.08c-.01-.02-.03-.03-.06-.03s-.05,0-.07.03c-.02.02-.03.04-.04.08l-.04.21h-.08l.07-.38h.08v.04s.03-.03.05-.04.04-.01.07-.01c.03,0,.06,0,.08.02.02.01.04.03.04.06.02-.02.04-.04.06-.05.03-.01.05-.02.08-.02h0ZM13.19,21.05s-.07,0-.09-.02c-.03-.02-.04-.04-.05-.07-.01-.03-.01-.06,0-.1,0-.04.02-.07.04-.1.02-.03.05-.05.08-.07.03-.02.07-.02.1-.02s.07,0,.09.02c.03.02.04.04.06.07.01.03.01.06,0,.1,0,.04-.02.07-.05.1-.02.03-.05.05-.08.07-.03.02-.07.02-.1.02h0ZM13.2,20.98s.04,0,.06-.01c.02,0,.04-.02.05-.04.01-.02.02-.04.03-.07,0-.03,0-.05,0-.07,0-.02-.02-.03-.03-.04-.02,0-.03-.01-.05-.01s-.04,0-.06.01c-.02,0-.04.02-.05.04-.01.02-.02.04-.03.07,0,.04,0,.07.01.09.02.02.04.03.07.03h0ZM13.64,20.73l-.04.21s0,.02,0,.03c0,0,.02,0,.03,0h.05v.07h-.07s-.06,0-.08-.02c-.02-.02-.02-.04-.01-.08l.04-.21h-.04v-.06h.06l.02-.09h.08l-.02.09h.09v.06h-.1ZM13.89,20.61s-.03,0-.03-.01c0,0-.01-.02,0-.04,0-.01,0-.03.02-.04.01,0,.02-.01.04-.01s.02,0,.03.01c0,0,.01.02,0,.04,0,.01,0,.03-.02.04-.01,0-.02.01-.04.01ZM13.92,20.66l-.07.38h-.08l.07-.38h.08ZM14.24,20.66s.06,0,.08.02c.02.01.04.03.04.05,0,.02,0,.05,0,.09l-.04.22h-.08l.04-.21s0-.06-.01-.08c-.01-.02-.03-.03-.06-.03s-.05,0-.07.03c-.02.02-.03.04-.04.08l-.04.21h-.08l.07-.38h.08v.04s.03-.03.05-.04c.02,0,.04-.01.07-.01ZM14.67,20.66s.05,0,.07.02c.02.01.04.03.04.04v-.05h.09l-.07.38s-.02.07-.04.09c-.02.03-.05.05-.08.06-.03.02-.07.02-.1.02-.05,0-.09-.01-.12-.04-.03-.02-.04-.06-.04-.1h.08s.01.04.03.05c.02.01.04.02.07.02.03,0,.06,0,.08-.03.02-.02.04-.05.05-.08v-.06s-.03.03-.05.04c-.02.01-.05.02-.08.02-.03,0-.06,0-.09-.02-.02-.02-.04-.04-.05-.07,0-.03-.01-.06,0-.1,0-.04.02-.07.04-.1.02-.03.05-.05.08-.07.03-.02.06-.02.09-.02h0ZM14.76,20.85s0-.05,0-.07c0-.02-.02-.03-.03-.04s-.03-.02-.05-.02-.04,0-.06.01-.04.02-.05.04c-.01.02-.02.04-.03.07,0,.03,0,.05,0,.07,0,.02.02.03.03.04.02.01.03.02.05.02s.04,0,.06-.02.04-.02.05-.04c.01-.02.02-.04.03-.07h0ZM15.51,20.71s-.01.05-.03.07c-.02.02-.04.04-.06.05-.03.01-.06.02-.1.02h-.09l-.04.19h-.08l.09-.48h.16s.07,0,.09.02c.02.01.04.03.05.05,0,.02.01.05,0,.07h0ZM15.32,20.78s.05,0,.07-.02c.02-.01.03-.03.03-.06,0-.05-.01-.08-.07-.08h-.09l-.03.16h.09ZM15.96,20.66l-.07.38h-.08v-.04s-.03.03-.05.04c-.02,0-.04.01-.07.01-.03,0-.06,0-.08-.02-.02-.01-.04-.03-.04-.05,0-.02,0-.05,0-.09l.04-.22h.08l-.04.21s0,.06.01.08c.01.02.03.03.06.03s.05,0,.07-.03c.02-.02.03-.04.04-.08l.04-.21h.08ZM16.15,20.72s.04-.03.06-.04c.03-.01.05-.02.08-.02.03,0,.06,0,.09.02.02.02.04.04.05.07,0,.03.01.06,0,.1,0,.04-.02.07-.04.1-.02.03-.05.05-.08.07-.03.02-.06.02-.09.02-.03,0-.05,0-.07-.02-.02-.01-.04-.03-.05-.04v.05h-.09l.1-.51h.08l-.04.19h0ZM16.36,20.85s0-.05,0-.07c0-.02-.02-.03-.03-.04-.02,0-.03-.01-.05-.01s-.04,0-.06.02c-.02.01-.04.02-.05.04-.01.02-.02.04-.03.07,0,.03,0,.05,0,.07,0,.02.02.03.03.04.02.01.03.02.05.02s.04,0,.06-.02c.02-.01.04-.03.05-.04.01-.02.02-.04.03-.07h0ZM16.68,20.53l-.1.51h-.08l.1-.51h.08ZM16.83,20.61s-.03,0-.03-.01c0,0-.01-.02,0-.04,0-.01,0-.03.02-.04.01,0,.02-.01.04-.01s.02,0,.03.01c0,0,.01.02,0,.04,0,.01,0,.03-.02.04-.01,0-.02.01-.04.01ZM16.86,20.66l-.07.38h-.08l.07-.38h.08ZM16.93,20.85s.02-.07.04-.1c.02-.03.05-.05.08-.07.03-.02.06-.02.1-.02.05,0,.08.01.11.03.03.02.04.05.04.09h-.08s-.01-.03-.02-.04c-.01-.01-.03-.02-.05-.02-.03,0-.06.01-.08.03-.02.02-.04.05-.05.09,0,.04,0,.07.01.1.01.02.04.03.07.03.05,0,.08-.02.1-.06h.08s-.04.07-.08.09c-.03.02-.07.03-.12.03-.04,0-.07,0-.09-.02-.02-.02-.04-.04-.05-.07-.01-.03-.01-.06,0-.1h0ZM17.68,21.05s-.06,0-.08-.02c-.02-.01-.04-.03-.05-.05-.01-.02-.01-.04,0-.07h.08s0,.04.01.05c.01.01.03.02.06.02s.05,0,.07-.02c.02-.01.03-.03.03-.05,0-.02,0-.03,0-.04,0-.01-.02-.02-.03-.02-.01,0-.03-.01-.05-.02-.03,0-.05-.02-.07-.02-.02,0-.03-.02-.04-.04s-.01-.04,0-.07c0-.03.02-.05.03-.07.02-.02.04-.04.07-.05.03-.01.06-.02.09-.02.05,0,.08.01.11.03.02.02.04.05.03.09h-.09s0-.03-.02-.04c-.01-.01-.03-.02-.06-.02-.02,0-.04,0-.06.02-.02.01-.03.03-.03.05,0,.01,0,.03,0,.04,0,0,.02.02.03.02.01,0,.03.01.05.02.03,0,.05.02.07.03.02,0,.03.02.04.04.01.02.01.04,0,.07,0,.02-.02.05-.03.07-.02.02-.04.04-.07.05-.03.01-.06.02-.09.02h0ZM18.35,20.84s0,.03-.01.04h-.29s0,.05.02.07c.02.02.04.03.07.03.04,0,.08-.02.1-.05h.08s-.04.06-.08.09c-.03.02-.07.03-.12.03-.04,0-.07,0-.09-.02-.03-.02-.04-.04-.05-.07-.01-.03-.01-.06,0-.1,0-.04.02-.07.04-.1.02-.03.05-.05.08-.07.03-.02.07-.02.1-.02s.07,0,.09.02c.02.02.04.04.05.07.01.03.01.06,0,.1h0ZM18.27,20.82s0-.05-.02-.07c-.02-.02-.04-.03-.07-.03-.03,0-.05,0-.07.03-.02.02-.04.04-.05.07h.21ZM18.56,20.72s.03-.03.05-.04c.02-.01.04-.02.07-.02l-.02.08h-.02s-.06,0-.07.02c-.02.02-.03.04-.04.08l-.04.2h-.08l.07-.38h.08v.05s-.01,0-.01,0ZM18.86,20.97l.17-.31h.08l-.22.38h-.09l-.07-.38h.08l.05.31ZM19.25,20.61s-.03,0-.03-.01c0,0-.01-.02,0-.04,0-.01,0-.03.02-.04.01,0,.02-.01.04-.01s.02,0,.03.01c0,0,.01.02,0,.04,0,.01,0,.03-.02.04-.01,0-.02.01-.04.01ZM19.28,20.66l-.07.38h-.08l.07-.38h.08ZM19.34,20.85s.02-.07.04-.1c.02-.03.05-.05.08-.07.03-.02.06-.02.1-.02.05,0,.08.01.11.03.03.02.04.05.04.09h-.08s-.01-.03-.02-.04c-.01-.01-.03-.02-.05-.02-.03,0-.06.01-.08.03-.02.02-.04.05-.05.09,0,.04,0,.07.01.1.01.02.04.03.07.03.05,0,.08-.02.1-.06h.08s-.04.07-.08.09c-.03.02-.07.03-.12.03-.04,0-.07,0-.09-.02-.02-.02-.04-.04-.05-.07-.01-.03-.01-.06,0-.1h0ZM20.15,20.84s0,.03-.01.04h-.29s0,.05.02.07c.02.02.04.03.07.03.04,0,.08-.02.1-.05h.08s-.04.06-.08.09c-.03.02-.07.03-.12.03-.04,0-.07,0-.09-.02-.03-.02-.04-.04-.05-.07-.01-.03-.01-.06,0-.1,0-.04.02-.07.04-.1.02-.03.05-.05.08-.07.03-.02.07-.02.1-.02s.07,0,.09.02c.02.02.04.04.05.07.01.03.01.06,0,.1h0ZM20.08,20.82s0-.05-.02-.07c-.02-.02-.04-.03-.07-.03-.03,0-.05,0-.07.03-.02.02-.04.04-.05.07h.21Z"/>
        <path class="cls-11" d="M3.05,15.24v.8c0,.18-.04.31-.13.41-.09.09-.22.14-.39.14s-.3-.05-.39-.14c-.09-.09-.13-.23-.13-.41v-.8c0-.18.04-.31.13-.41.09-.09.22-.14.39-.14s.3.05.39.14c.09.09.13.23.13.41ZM2.73,15.22c0-.09-.02-.16-.05-.21-.03-.04-.08-.06-.15-.06s-.12.02-.15.06c-.03.04-.05.11-.05.21v.84c0,.09.02.16.05.21.03.04.08.06.15.06s.12-.02.15-.06c.03-.04.05-.11.05-.21v-.84ZM3.26,16.41s.02-.08.05-.11c.03-.03.07-.05.11-.05s.08.02.11.05c.03.03.05.07.05.11s-.02.08-.05.11c-.03.03-.07.05-.11.05s-.08-.02-.11-.05c-.03-.03-.05-.07-.05-.11h0ZM4.3,15.57h.13c.1,0,.17-.02.21-.05.04-.03.05-.1.05-.19v-.16c0-.08-.02-.13-.06-.16-.04-.03-.11-.05-.21-.05h-.13v.61h0ZM3.83,16.55v-.24h.15v-1.35h-.15v-.24h.64c.18,0,.31.04.39.11.08.07.12.18.12.33v.19c0,.15-.04.26-.11.34-.07.07-.18.11-.33.11h-.26v.51h.15v.24h-.62ZM4.86,16.41s.02-.08.05-.11c.03-.03.07-.05.11-.05s.08.02.11.05c.03.03.05.07.05.11s-.02.08-.05.11c-.03.03-.07.05-.11.05s-.08-.02-.11-.05c-.03-.03-.05-.07-.05-.11h0ZM5.91,16.87v-.27h.04c.06,0,.11-.01.13-.04.02-.03.03-.07.03-.14v-1.46h-.15v-.24h.61v.24h-.15v1.44c0,.16-.04.28-.11.35-.07.08-.19.11-.35.11h-.06ZM6.77,16.55v-.24h.15v-1.35h-.15v-.24h.62v.24h-.15v1.35h.15v.24h-.62ZM7.61,16.55v-.24h.15v-1.35h-.15v-.24h.47l.48,1.25v-1.01h-.14v-.24h.55v.24h-.15v1.59h-.27l-.53-1.35v1.11h.14v.24h-.55ZM9.65,14.96v1.36h.06c.13,0,.22-.03.28-.1.06-.07.08-.18.08-.33v-.55c0-.14-.02-.24-.08-.3-.05-.06-.14-.08-.27-.08h-.08ZM9.18,14.73h.5c.26,0,.44.05.54.14.11.09.16.26.16.48v.48c0,.25-.05.44-.15.55-.1.11-.27.17-.49.17h-.56v-.24h.15v-1.35h-.15v-.24h0ZM11.04,15.81h.34l-.17-.74-.17.74h0ZM10.53,16.55v-.24h.12l.36-1.35h-.16v-.24h.76v.24h-.16l.35,1.35h.11v.24h-.57v-.24h.16l-.07-.3h-.43l-.08.3h.16v.24h-.54ZM12.09,16.55v-.24h.15v-1.35h-.15v-.24h.62v.24h-.15v1.35h.44v-.34h.26v.57h-1.16,0ZM14.77,16.45s-.09.08-.14.1c-.05.02-.11.04-.16.04-.15,0-.27-.05-.35-.15-.08-.1-.12-.25-.12-.44v-.7c0-.2.04-.35.11-.45.08-.1.19-.15.33-.15.06,0,.12.01.17.04.05.03.1.06.13.11v-.12h.22v.54h-.24v-.05c0-.09-.03-.15-.06-.2-.03-.04-.08-.06-.14-.06-.07,0-.13.02-.16.07-.03.05-.05.12-.05.22v.81c0,.1.02.17.05.22.03.04.09.07.16.07s.12-.02.16-.07c.04-.05.05-.12.05-.21v-.13h-.16v-.24h.42v.88h-.15l-.07-.1h0ZM15.21,16.55v-.24h.15v-1.35h-.15v-.24h.62v.24h-.15v1.35h.44v-.34h.26v.57h-1.16ZM17.68,15.24v.8c0,.18-.04.31-.13.41-.09.09-.22.14-.39.14s-.3-.05-.39-.14c-.09-.09-.13-.23-.13-.41v-.8c0-.18.04-.31.13-.41.09-.09.22-.14.39-.14s.3.05.39.14c.09.09.13.23.13.41ZM17.36,15.22c0-.09-.02-.16-.05-.21-.03-.04-.08-.06-.15-.06s-.12.02-.15.06c-.03.04-.05.11-.05.21v.84c0,.09.02.16.05.21.03.04.08.06.15.06s.12-.02.15-.06c.03-.04.05-.11.05-.21v-.84ZM18.36,16.32h.16c.08,0,.14-.02.18-.06.04-.04.05-.11.05-.2v-.15c0-.08-.02-.14-.05-.17-.04-.04-.1-.05-.18-.05h-.16v.63h0ZM18.36,15.47h.14c.09,0,.15-.02.18-.05.03-.03.05-.09.05-.17v-.1c0-.07-.02-.11-.05-.15-.03-.03-.09-.05-.16-.05h-.17v.51ZM17.91,16.55v-.24h.15v-1.35h-.15v-.24h.65c.16,0,.28.03.36.1.08.07.12.17.12.31v.06c0,.11-.03.19-.08.26-.05.06-.13.1-.23.12.12.02.2.06.25.12.05.06.08.15.08.27v.12c0,.16-.04.28-.11.35-.08.08-.19.11-.35.11h-.69ZM19.78,15.81h.34l-.17-.74-.17.74h0ZM19.27,16.55v-.24h.12l.36-1.35h-.16v-.24h.76v.24h-.16l.35,1.35h.11v.24h-.57v-.24h.16l-.07-.3h-.43l-.08.3h.16v.24h-.54,0ZM20.83,16.55v-.24h.15v-1.35h-.15v-.24h.62v.24h-.15v1.35h.44v-.34h.26v.57h-1.16Z"/>
        <path class="cls-9" d="M2.71,17.16v.63h-.1v-.63h.1ZM3.39,17.78h-.1l-.31-.47v.47h-.1v-.63h.1l.31.47v-.47h.1v.63ZM3.77,17.79s-.08,0-.11-.02c-.03-.01-.06-.04-.08-.06-.02-.03-.03-.06-.03-.09h.11s.01.05.03.07c.02.02.05.03.08.03s.06,0,.08-.03c.02-.02.03-.04.03-.07,0-.02,0-.04-.02-.05-.01-.01-.03-.02-.05-.03-.02,0-.04-.01-.08-.02-.04-.01-.07-.02-.1-.03-.03-.01-.05-.03-.07-.05-.02-.02-.03-.05-.03-.09,0-.04,0-.07.03-.09.02-.03.04-.05.08-.06.03-.01.07-.02.11-.02.06,0,.11.02.15.05.04.03.06.07.06.12h-.11s-.01-.04-.03-.06c-.02-.02-.05-.02-.08-.02-.03,0-.05,0-.07.02s-.03.04-.03.06c0,.02,0,.03.02.05.01.01.03.02.04.03.02,0,.04.01.07.02.04.01.08.02.1.03.03.01.05.03.07.05.02.02.03.06.03.09,0,.03,0,.06-.03.09-.02.03-.04.05-.07.07-.03.02-.07.03-.12.03h0ZM4.54,17.16v.08h-.17v.54h-.1v-.54h-.17v-.08h.44ZM4.78,17.16v.63h-.1v-.63h.1ZM5.36,17.16v.08h-.17v.54h-.1v-.54h-.17v-.08h.44ZM5.6,17.16v.4s.01.08.04.11c.02.02.06.04.1.04s.08-.01.1-.04c.02-.02.04-.06.04-.11v-.4h.1v.4c0,.05-.01.09-.03.13-.02.04-.05.06-.09.08-.04.02-.08.03-.12.03s-.09,0-.12-.03-.07-.04-.09-.08c-.02-.04-.03-.08-.03-.13v-.4s.1,0,.1,0ZM6.55,17.16v.08h-.17v.54h-.1v-.54h-.17v-.08h.44ZM6.79,17.16v.63h-.1v-.63h.1ZM7.25,17.79c-.06,0-.11-.01-.16-.04-.05-.03-.09-.07-.12-.11-.03-.05-.04-.1-.04-.17s.01-.12.04-.16c.03-.05.07-.09.12-.11.05-.03.1-.04.16-.04s.11.01.16.04c.05.03.09.07.12.11.03.05.04.1.04.16s-.01.12-.04.17c-.03.05-.07.09-.12.11-.05.03-.1.04-.16.04ZM7.25,17.7s.08,0,.11-.03c.03-.02.06-.05.08-.08.02-.04.03-.08.03-.12s0-.09-.03-.12c-.02-.03-.04-.06-.08-.08-.03-.02-.07-.03-.11-.03s-.08,0-.11.03c-.03.02-.06.05-.08.08-.02.03-.03.08-.03.12s0,.09.03.12c.02.04.04.06.08.08.03.02.07.03.11.03ZM8.22,17.78h-.1l-.31-.47v.47h-.1v-.63h.1l.31.47v-.47h.1v.63ZM8.9,17.79c-.06,0-.11-.01-.16-.04-.05-.03-.09-.07-.12-.11-.03-.05-.04-.1-.04-.17s.01-.12.04-.16c.03-.05.07-.09.12-.11.05-.03.1-.04.16-.04s.11.01.16.04c.05.03.09.07.12.11.03.05.04.1.04.16s-.01.12-.04.17c-.03.05-.07.09-.12.11-.05.03-.1.04-.16.04ZM8.9,17.7s.08,0,.11-.03c.03-.02.06-.05.08-.08.02-.04.03-.08.03-.12s0-.09-.03-.12c-.02-.03-.04-.06-.08-.08-.03-.02-.07-.03-.11-.03s-.08,0-.11.03c-.03.02-.06.05-.08.08-.02.03-.03.08-.03.12s0,.09.03.12c.02.04.04.06.08.08.03.02.07.03.11.03ZM9.72,17.16v.08h-.27v.18h.21v.08h-.21v.27h-.1v-.63h.37ZM10.18,17.24v.18h.22v.08h-.22v.19h.24v.08h-.35v-.63h.35v.08h-.24ZM11.24,17.16v.63h-.1v-.43l-.19.43h-.07l-.19-.43v.43h-.1v-.63h.11l.22.49.22-.49h.11ZM11.52,17.16v.63h-.1v-.63h.1ZM12.2,17.78h-.1l-.31-.47v.47h-.1v-.63h.1l.31.47v-.47h.1v.63ZM12.47,17.24v.18h.22v.08h-.22v.19h.24v.08h-.35v-.63h.35v.08h-.24ZM13.39,17.78h-.1l-.31-.47v.47h-.1v-.63h.1l.31.47v-.47h.1v.63ZM13.52,17.47c0-.06.01-.12.04-.16.03-.05.07-.09.12-.11.05-.03.1-.04.16-.04.07,0,.13.02.18.05.05.03.09.08.11.14h-.12s-.04-.06-.07-.07-.06-.02-.1-.02c-.04,0-.08,0-.11.03-.03.02-.06.05-.08.08-.02.03-.03.08-.03.12s0,.09.03.12c.02.03.04.06.08.08.03.02.07.03.11.03.04,0,.07,0,.1-.02s.05-.04.07-.07h.12c-.02.06-.06.11-.11.14-.05.03-.11.05-.18.05-.06,0-.11-.01-.16-.04-.05-.03-.09-.07-.12-.11-.03-.05-.04-.1-.04-.16ZM14.39,17.24v.18h.22v.08h-.22v.19h.24v.08h-.35v-.63h.35v.08h-.24ZM15.22,17.16c.07,0,.12.01.17.04.05.03.09.06.12.11.03.05.04.1.04.17s-.01.12-.04.17c-.03.05-.07.08-.12.11-.05.02-.11.04-.17.04h-.2v-.63h.2ZM15.22,17.7c.07,0,.13-.02.17-.06.04-.04.06-.1.06-.17s-.02-.13-.06-.17c-.04-.04-.1-.06-.17-.06h-.1v.46h.1ZM15.79,17.24v.18h.22v.08h-.22v.19h.24v.08h-.35v-.63h.35v.08h-.24ZM16.3,17.24v.18h.22v.08h-.22v.19h.24v.08h-.35v-.63h.35v.08h-.24ZM17.36,17.16v.63h-.1v-.43l-.19.43h-.07l-.19-.43v.43h-.1v-.63h.11l.22.49.22-.49h.11ZM17.63,17.24v.18h.22v.08h-.22v.19h.24v.08h-.35v-.63h.35v.08h-.24ZM18.24,17.16c.07,0,.12.01.17.04.05.03.09.06.12.11.03.05.04.1.04.17s-.01.12-.04.17c-.03.05-.07.08-.12.11-.05.02-.11.04-.17.04h-.2v-.63h.2ZM18.24,17.7c.07,0,.13-.02.17-.06.04-.04.06-.1.06-.17s-.02-.13-.06-.17c-.04-.04-.1-.06-.17-.06h-.1v.46h.1ZM19.34,17.16v.08h-.17v.54h-.1v-.54h-.17v-.08h.44ZM19.76,17.79c-.06,0-.11-.01-.16-.04-.05-.03-.09-.07-.12-.11-.03-.05-.04-.1-.04-.17s.01-.12.04-.16c.03-.05.07-.09.12-.11.05-.03.1-.04.16-.04s.11.01.16.04c.05.03.09.07.12.11.03.05.04.1.04.16s-.01.12-.04.17c-.03.05-.07.09-.12.11-.05.03-.1.04-.16.04ZM19.76,17.7s.08,0,.11-.03c.03-.02.06-.05.08-.08.02-.04.03-.08.03-.12s0-.09-.03-.12c-.02-.03-.04-.06-.08-.08-.03-.02-.07-.03-.11-.03s-.08,0-.11.03c-.03.02-.06.05-.08.08-.02.03-.03.08-.03.12s0,.09.03.12c.02.04.04.06.08.08.03.02.07.03.11.03ZM20.78,17.46s.06.02.09.05c.02.03.04.06.04.1,0,.03,0,.06-.02.09-.02.03-.04.05-.07.06-.03.01-.07.02-.11.02h-.25v-.63h.24s.08,0,.11.02c.03.01.05.03.07.06.02.02.02.05.02.08,0,.04,0,.07-.03.09-.02.02-.04.04-.08.05ZM20.55,17.42h.13s.06,0,.08-.02c.02-.02.03-.04.03-.07s0-.05-.03-.07c-.02-.02-.05-.02-.08-.02h-.13v.18ZM20.69,17.7s.06,0,.08-.03c.02-.02.03-.04.03-.07s-.01-.05-.03-.07c-.02-.02-.05-.03-.08-.03h-.13v.2h.14,0ZM21.15,17.24v.18h.22v.08h-.22v.19h.24v.08h-.35v-.63h.35v.08h-.24Z"/>
        <path class="cls-11" d="M5.69,19.55v-1.13h-.15v-.24h.61v.24h-.14v1.11c0,.09.02.15.05.19.03.04.08.06.16.06s.12-.02.15-.06c.03-.04.05-.11.05-.19v-1.11h-.14v-.24h.61v.24h-.15v1.13c0,.16-.04.28-.13.37-.09.08-.22.13-.39.13s-.3-.04-.39-.13c-.09-.09-.13-.21-.13-.37ZM7.1,20.01v-.24h.15v-1.35h-.15v-.24h.47l.48,1.25v-1.01h-.14v-.24h.55v.24h-.15v1.59h-.27l-.53-1.35v1.11h.14v.24h-.55ZM8.68,20.01v-.24h.15v-1.35h-.15v-.24h.62v.24h-.15v1.35h.15v.24h-.62ZM9.99,20.03l-.41-1.6h-.1v-.24h.54v.24h-.12l.22,1.07.23-1.07h-.13v-.24h.51v.24h-.11l-.39,1.6h-.22ZM10.88,20.01v-.24h.15v-1.35h-.15v-.24h1.19v.51h-.26v-.28h-.46v.5h.39v.26h-.39v.6h.46v-.33h.26v.56h-1.19ZM12.77,18.94h.18c.08,0,.13-.01.17-.04.04-.03.05-.08.05-.14v-.16c0-.07-.02-.11-.05-.14-.03-.03-.1-.04-.19-.04h-.16v.52h0ZM12.3,20.01v-.24h.15v-1.35h-.15v-.24h.64c.2,0,.33.03.41.09.08.06.12.17.12.32v.12c0,.11-.02.19-.07.24-.05.05-.13.09-.24.1.11.01.2.04.24.09.04.04.07.11.07.2v.43h.15v.24h-.46v-.65c0-.07-.02-.13-.05-.15-.03-.03-.1-.04-.19-.04h-.16v.6h.14v.24h-.61,0ZM13.82,20.01v-.57h.24c0,.11.04.2.09.26.05.06.11.09.19.09.06,0,.1-.02.14-.05.03-.03.05-.08.05-.14,0-.04-.01-.09-.03-.13-.02-.04-.06-.08-.11-.13l-.32-.28c-.08-.07-.13-.14-.17-.22-.04-.08-.06-.17-.06-.26,0-.12.04-.23.11-.31.08-.08.17-.12.29-.12.06,0,.11.01.16.04.05.02.1.06.14.11v-.11h.22v.5h-.22c-.01-.09-.04-.16-.09-.21-.04-.05-.1-.07-.16-.07-.05,0-.09.02-.12.05-.03.03-.05.08-.05.13,0,.04.01.08.03.11.02.04.05.07.1.11l.34.3c.09.07.15.15.18.22.04.08.06.16.06.26,0,.13-.04.24-.12.33-.08.09-.19.13-.32.13-.07,0-.13-.01-.18-.04-.05-.03-.11-.07-.15-.13v.14h-.21ZM15.01,20.01v-.24h.15v-1.35h-.15v-.24h.62v.24h-.15v1.35h.15v.24h-.62ZM16.08,20.01v-.24h.18v-1.36h-.21v.3h-.22v-.53h1.16v.53h-.22v-.3h-.21v1.36h.18v.24h-.68ZM17.18,18.19h.55v.24h-.13l.21.59.24-.59h-.13v-.24h.52v.24h-.11l-.39.87v.48h.15v.24h-.61v-.24h.15v-.49l-.35-.86h-.11v-.24h0Z"/>
        <path class="cls-10" d="M21.54,16.8h.45v3.33h-.45v-.1h.35v-3.14h-.35v-.1ZM2.46,20.13h-.45v-3.33h.45v.1h-.35v3.14h.35v.1h0Z"/>
      </g>
    </g>
  </g>
</svg>