<svg version="1.2" xmlns="http://www.w3.org/2000/svg" viewBox="0 0 3100 2108" width="100" height="68">
	<title>Checkeligibilty-ai-svg</title>
	<style>
		.s0 { fill: #2f1309 } 
		.s1 { fill: #ffa67d } 
		.s2 { fill: #fae4d1 } 
		.s3 { fill: #936a5a } 
		.s4 { fill: #ffffff } 
		.s5 { fill: #a4b3c4 } 
	</style>
	<g id="_Artboards_">
	</g>
	<g id="Layer 1">
		<g id="&lt;Group&gt;">
			<g id="&lt;Group&gt;">
				<path id="&lt;Path&gt;" class="s0" d="m358.2 1274.6c-4 24.3 36.2 77.2 199.1 140.5 162.9 63.3 172.1 93.4 201.7 34.2 29.6-59.3 83.4-108.1-35.7-143.5-119.2-35.4-365.1-31.2-365.1-31.2z"/>
				<path id="&lt;Compound Path&gt;" class="s0" d="m1879.6 1021.1c-13.8-36.1-36.6-70.1-65.4-95.9-101-90.4-240.7-22.5-241.3 110.5-0.2 39.8 12.8 80.2 39.8 109.9 91.4 101 325.9 29.7 266.9-124.5z"/>
				<path id="&lt;Compound Path&gt;" class="s0" d="m1735.8 485.6c-13.8-36-37.3-59.2-68.3-82.3-43.8-32.6-74.1-51.2-148.8-71.1-59.3-15.8-92.2 104.3-92.5 181.6-0.2 39.8 12.8 80.2 39.8 110 91.4 100.9 328.8 16 269.8-138.2z"/>
				<path id="&lt;Compound Path&gt;" class="s0" d="m1872.1 820c-4.6-44.2-20.5-90.1-48.6-123.8-42.9-51.5-91.1-80.9-128.8-129.1-31-39.6-46.9-87.9-72.8-130.4-72.7-119-234.7-102-325.9-13.3-33.1 32.3-57.1 73.7-66 118.9-8.7 44.7-3.1 92.3 15.8 133.9 9.4 20.6 22 39.7 37.7 56.2 17.7 18.5 40.6 31.5 57.7 50.5 18.5 20.7 23.3 47.6 32 72.9 7.9 23 20.8 44 37.2 62.1 35.2 38.7 83.4 62.5 134 75.6 28 7.2 56.8 11.4 85.7 13.9 29.5 2.7 59.4 3.5 88.8-0.4 39.1-5.2 76-17.9 105.1-45.6 40.6-38.5 53.5-90 48.1-141.4z"/>
				<path id="&lt;Path&gt;" class="s0" d="m1319.5 342.2c-72.8 41.3-209.4 203.3-205.8 319.6 3.5 116.3 152.6 135.2 285.5 159.9 132.9 24.6-79.7-479.5-79.7-479.5z"/>
				<path id="&lt;Compound Path&gt;" class="s1" d="m2110.1 1509.2c-3.3-40.3-9.3-80.3-18.1-119.7-3.4-15.2-6.9-33.5-20.2-43.4-14.7-10.9-34.8-6.8-51.2-2.9-174.5 41.8-623.7 136.8-643 141.6q-1.5 0.4-3.1 0.8c1.1 2.3 2.1 4.7 3.2 7 24.6 51.9 60.4 98.4 104 135.7 46.9 40.1 102.7 68.8 162.4 83.9 63 15.9 129.7 16.7 193 1.7 59.7-14.2 115.4-41.5 167-74.3 37.7-23.9 73.5-50.8 108.6-78.3-0.4-17.4-1.2-34.8-2.6-52.1z"/>
				<g id="&lt;Group&gt;">
					<path id="&lt;Path&gt;" class="s2" d="m1827.9 1230.3c0-43.8-0.7-87.8-7.3-131.2-5.8-38.5-14.2-78-33.6-112.2-19-33.7-52.5-61.8-83.6-83.9-23-16.3-47.6-30.4-72.9-43-20.1 29.7-38.8 60.4-55.7 92.1-25.2 47.3-46.6 96.6-64.2 147.3-17.6 50.7-31.3 102.8-40.8 155.6-9.6 52.5-15.1 105.8-16.4 159.2-0.6 26.1-0.1 52.1 1.3 78.2 27.2-10.2 54.6-19.8 82.1-28.9q52.3-17.3 105.4-32.2 52.7-14.9 106.1-27.3 42.1-9.8 84.5-18.1c-0.5-4.4-1-8.8-1.4-13.2-4.4-47.3-3.5-94.9-3.5-142.4z"/>
				</g>
				<path id="&lt;Compound Path&gt;" class="s0" d="m1429.2 1752.9c-7.3-35.6-17-70.7-29.2-105-12-34-26.4-67.3-43-99.3q-14.1-27.2-30.3-53.1c-24.7-6.3-49.6-12.1-74.5-17.3-41.2-8.6-82.7-15.7-124.4-21.2-41.9-5.5-84-9.5-126.2-12q-53.1-3-106.2-2.7c-60.1 45.9-114.1 99.9-160.1 159.9-30.4 39.6-57.3 81.8-80.3 126.1q-15.9 30.8-29.4 62.7h810.4c-2-12.7-4.3-25.4-6.8-38.1z"/>
				<g id="&lt;Group&gt;">
					<path id="&lt;Path&gt;" class="s2" d="m1564.9 830.8c-61.2-24.7-124.4-44.6-188.4-60.4-66.8-16.4-134.6-28.4-202.8-37.1-19.9-2.5-39.9-4.9-59.9-7.5q-6.6-0.2-13.2-0.4c-51.9 48.5-100.7 100.6-144.2 156.8-61.7 79.7-112.4 168-145.6 263.4-33.1 94.7-49.7 197.6-39.1 297.8 4.5 42.3 15.5 86.8 43.9 119.6 31 35.7 77.7 46.7 123.2 46.6 23.2-0.1 46.4-2.6 69.5-5.6 27.1-3.6 54.3-7.4 81.3-11.8 54.1-8.8 107.8-19.8 160.2-35.9 92.8-28.5 182.8-73.8 250.7-144.4 64.5-67 104.3-152.8 131.9-240.7 14.2-45 25.5-91 35.9-137.1 5.2-23.2 10.9-46.5 14.9-70 3.3-18.6 10.8-49.8 5.9-70.8-38.8-25.4-81.2-45.2-124.2-62.5z"/>
				</g>
				<path id="&lt;Path&gt;" class="s1" d="m1376.5 770.4c-25.6-6.2-51.2-11.9-77-16.9-0.8 18.9 1.1 50.1 6.6 69.1 7 24.2 22.5 48.6 41.9 65.1 18.9 15.9 43.8 24.4 68.6 21.2 12-1.5 23.7-5.8 33.3-13.2 10.2-7.8 17.9-18.4 23.2-30 9.1-20.2 10.9-42.4 10.6-64.5-35.3-11.6-71.1-21.9-107.2-30.8z"/>
				<g id="&lt;Group&gt;">
					<path id="&lt;Path&gt;" class="s0" d="m1654.2 1117.2c-10.4 53.7-27.5 106-50.9 155.5-23.3 49.5-52.6 96.2-87.2 138.6-19.4 23.7-40.4 46.1-62.9 66.9-3.3 2.9 1.6 7.8 4.8 4.8 40.4-37.4 76.1-79.8 106.2-126 30-46.1 54.4-96 72.4-148 10.2-29.4 18.3-59.5 24.2-90 0.8-4.3-5.8-6.2-6.6-1.8z"/>
				</g>
				<g id="&lt;Group&gt;">
					<path id="&lt;Path&gt;" class="s0" d="m1548.7 1378.5c69.2-28.1 141.4-48.8 215-61.5q31.6-5.5 63.5-9c4.3-0.4 4.4-7.3 0-6.8-74.8 8.2-148.7 24.4-220.1 48.4q-30.4 10.2-60.2 22.3c-4 1.6-2.3 8.2 1.8 6.6z"/>
				</g>
				<path id="&lt;Path&gt;" class="s1" d="m920 1386.3c-40.6 3.8-81.1 8.6-121.5 13.7q21.3-41 42.7-81.9c-34.3-5.2-68-14.1-101.4-23.4-48.2-13.5-96.2-27.1-143.6-43.2-31.1-10.5-61.7-22.2-92.3-34.1-31.4 40.9-57.3 86.1-76.5 133.9-15.2 37.8-26.5 77.3-32.9 117.6-6.7 41.5-7.9 85.7 6.9 125.7 13.6 36.9 41 66.5 74 87.2 36.9 23 79.4 34.6 122 41.2 47.2 7.2 95.2 10 142.9 10.6 48.9 0.7 97.9-1.5 146.6-5.5 88.3-7.3 175.9-20.6 263.3-35.3 9.4-31.8 18-63.8 25.5-96.1 17.8-75.9 38.4-163.3 52-240-70.8 1.4-248.6 24-307.7 29.6z"/>
				<g id="&lt;Group&gt;">
					<path id="&lt;Path&gt;" class="s2" d="m1111.9 725.6c-15.5-1.1-31-1.7-46.7-1.9-79.2-1.1-161.1 9.6-238.9 39.6-38.1 14.6-74.6 34-108.6 57.9-33.6 23.5-64.6 50.9-93.3 80.3-60.7 62-112.6 132.2-160.5 203.5-37.2 55.5-71.7 112.4-105.7 169.6 80.4-29.6 437.5 62.7 464.5 19.6 34-54.6 80.9-169.6 116.2-223.4q52.6-80.5 107-159.8 54.5-79.4 110.7-157.7 7.2-10.2 14.6-20.3c-19.8-2.5-39.6-4.9-59.3-7.4z"/>
				</g>
				<g id="&lt;Group&gt;">
					<path id="&lt;Path&gt;" class="s2" d="m798.5 1400c0 0-222.5-100.8-440.3-125.4 0 0 108-61.1 231.1-48 123 13.1 273.9 85.5 273.9 85.5z"/>
				</g>
				<path id="&lt;Path&gt;" class="s1" d="m1620.8 1656.3c-1.6-8.4-4.5-16.7-7.2-24.2-11.7-32.3-32.2-60.4-53.3-87-20.5-25.7-41.7-51-64.2-74.9-22.4-23.8-46.3-46.4-72.4-66.1-15.5-11.8-38.9-25.8-60.3-34.7q0 0.1 0 0.1c-7.5-3.3-15.2-6-23.2-8.1-25.9-6.6-52.8-7.4-79.3-6.4-28.3 1-56.6 3.4-84.9 5.7-28.9 2.2-57.9 5-86.8 8.9-28.5 3.8-57.3 8.4-85.2 15.9-11.9 3.1-23.9 7.2-34.3 14.2-9.8 6.6-17.4 15.7-22.4 26.4-5.2 10.8-7.8 22.5-9.5 34.3-1.7 12.7-2.4 25.7-2.6 38.6-0.3 26.9 2.6 54.3 12.9 79.4 18.7 45.3 60 75.7 101.5 98.8 14.3 7.9 29 15.3 43.6 22.7 52.6-4.8 104.9-12.1 156.8-21.7 30.7-5.7 61.3-12.3 91.6-19.6-0.2 0.2-0.4 0.3-0.6 0.5-9.6 9.1-8.9 22-2.7 32.6 12.6 21 40.6 29.9 65.4 30.8 12.7 0.5 26.5-0.2 38.3-4.9q3.6-1.5 6.9-3.6 0.2-0.1 0.4-0.2 1.1-0.7 2.1-1.5 0.8-0.6 1.5-1.2 1.1-0.9 2.1-1.9 0.1-0.2 0.3-0.4c0.6-0.7 1.3-1.3 1.9-2.1 3.6-4.8 5.7-10.6 6.2-16.5 0.1-0.8 0-1.6 0-2.4 0.3-5-0.2-10-1.1-14.8-0.5-2.4-1-4.8-1.6-7.1 2.8 2.6 5.6 5.3 8.6 7.8 7.9 6.8 17.4 13.4 28.5 15.1 10.5 1.7 20.9-2.8 27-11.6 5.7-8.3 6.6-17.7 5.6-26.8 14 15.9 29.3 31.7 46.5 41.1 15.1 8.1 37.7 8.4 43.4-11.1 2.3-7.7 2-16 0.5-24.1z"/>
				<g id="&lt;Group&gt;">
					<path id="&lt;Path&gt;" class="s0" d="m1344 1661.6q14.9-2.3 29.9-4.6c1.8-0.2 2.8-2.5 2.4-4.2-0.5-1.9-2.4-2.6-4.2-2.3q-15 2.2-29.9 4.6c-1.9 0.2-2.9 2.5-2.4 4.2 0.5 1.9 2.3 2.6 4.2 2.3z"/>
				</g>
				<g id="&lt;Group&gt;">
					<path id="&lt;Path&gt;" class="s0" d="m836.8 1394.6q67-143.3 141.3-282.9 20.7-39 42-77.6c2.1-3.8-3.8-7.3-5.9-3.4-50.9 92.3-99.3 186-145.4 280.9q-19.2 39.6-37.9 79.5c-1.9 4 4 7.5 5.9 3.5z"/>
				</g>
				<g id="&lt;Group&gt;">
					<path id="&lt;Path&gt;" class="s0" d="m868.4 1321.2c-55.2-26.2-112-49.2-169.9-68.6-58.9-19.8-119-36.1-179.8-48.8-34.6-7.2-69.5-13.3-104.5-18.3-4.3-0.6-6.1 6-1.8 6.6 61.5 8.7 122.5 20.9 182.5 36.7 59.5 15.6 118.1 34.7 175.4 57.2 32 12.6 63.5 26.3 94.6 41.1 4 1.9 7.4-4 3.5-5.9z"/>
				</g>
				<g id="&lt;Group&gt;">
					<path id="&lt;Path&gt;" class="s0" d="m1531.7 1663.5c10.6 11.3 22.2 22.1 35.7 29.9 8.9 5.1 19.4 7.9 29.6 6.2 22.1-3.8 25.3-28.9 20.4-47.1-2.7-9.9-7.3-19.4-11.8-28.5-10.3-20.7-22.3-40.5-34.7-59.9-9.8-15.1-19.7-30.1-30.8-44.3-11.5-14.6-23.6-28.8-35.2-43.3-2.8-3.5-7.6 1.4-4.9 4.8 19.1 24 39.1 46.9 56 72.5 13.3 20.2 26.2 40.7 37.7 62.1 5.7 10.6 11.3 21.5 15.4 32.9 4.4 12.5 7.3 32-4.9 40.7-8.5 6.1-20.9 4.2-29.8-0.1-14.6-7.1-26.8-19-37.9-30.7-3-3.2-7.8 1.6-4.8 4.8z"/>
				</g>
				<g id="&lt;Group&gt;">
					<path id="&lt;Path&gt;" class="s0" d="m1535 1665.4c10-20.2 0.1-42.2-7.7-61.3-8.8-21.2-19-41.9-30-62.1-2.1-3.8-8-0.4-5.9 3.5 10.2 18.8 19.8 37.9 28.1 57.6 7.4 17.6 18.9 40 9.6 58.9-2 3.9 3.9 7.4 5.9 3.4z"/>
				</g>
				<g id="&lt;Group&gt;">
					<path id="&lt;Path&gt;" class="s0" d="m1465.4 1662.1c-5.4-14.4-12.8-28.3-20.1-41.8-7.6-14.2-15.9-27.9-24.5-41.5-2.3-3.7-8.2-0.3-5.9 3.4 8.4 13.2 16.4 26.6 23.9 40.3 7.2 13.3 14.6 27.1 20 41.4 1.6 4 8.2 2.3 6.6-1.8z"/>
				</g>
				<g id="&lt;Group&gt;">
					<path id="&lt;Path&gt;" class="s1" d="m1256.3 467.5q0.7-4.8 1.6-9.5c20.9-112.5 174.6-155.7 269.9-99.8 80.2 47.1 96.7 127.7 100.6 210.4 0.3 7.7 0.5 15.9 0.4 24.5q1 3 2 6c21.4 67.9 25.4 203.5-75.7 189-69.3-10-106.3-40.7-151.3-63.5-98.4-49.9-163.3-143.1-147.5-257.1z"/>
					<path id="&lt;Compound Path&gt;" class="s0" d="m1560.1 361.5c13.7-13.8-69.5-44.5-126.5-46.3-20.4-0.6-40.7-0.1-59.9 4.5-38.9 9.3-73.1 30.8-97.6 59.8-24.1 28.4-39.3 63.6-44.3 100.3-5.1 38.1 1.2 79.8 25.1 113.5 20.5 29 8.8 25.5 45.3 29.6 115.7 12.8 36-13.1 104.4-61.2 60.2-42.2 78.3-89.6 74.6-145.9-2.1-30.5 59.2-34.5 78.9-54.3z"/>
					<path id="&lt;Path&gt;" class="s1" d="m1500.9 678.2c0 0-32 69.5-59.3 127.2 0 0-21.9 43.1-82.1 13.2-50.1-24.8-47.3-52.8-47.3-52.8l61.4-144.1z"/>
					<g id="&lt;Group&gt;">
						<path id="&lt;Path&gt;" class="s0" d="m1424.3 735.6c10.9 11.2 23.1 21.3 36.9 28.8 3.8 2.2 7.3-3.7 3.4-5.9-13.3-7.2-25-16.9-35.5-27.7-3.1-3.2-7.9 1.7-4.8 4.8z"/>
					</g>
					<path id="&lt;Path&gt;" class="s0" d="m1270.5 585.9l45.5 170.9c0 0 100.6-29.7 111-105.6 14.3-104.3-156.5-65.3-156.5-65.3z"/>
					<g id="&lt;Group&gt;">
						<path id="&lt;Path&gt;" class="s3" d="m1381 431.7c-7.5 68.1-33.6 133.8-74.4 188.9-11.6 15.6-24.4 30.3-38.2 44-3.2 3.1 1.7 8 4.8 4.9 49.7-49.3 85.8-111.8 103.8-179.4 5.1-19.2 8.6-38.7 10.8-58.4 0.5-4.4-6.4-4.4-6.8 0z"/>
					</g>
					<g id="&lt;Group&gt;">
						<path id="&lt;Path&gt;" class="s3" d="m1288.7 553.2c-18.2 41.4-43.5 79.4-74.9 112-3.1 3.2 1.8 8 4.8 4.8 31.8-33 57.6-71.4 76-113.3 1.8-4-4.1-7.5-5.9-3.5z"/>
					</g>
					<path id="&lt;Compound Path&gt;" class="s4" d="m1524.2 666.3c-0.5-2.5 1.6-4.7 4.1-4.5 13.3 1.5 45.6 4.9 64.5 6.9 2.5 0.2 4 2.8 3.1 5.1-1.8 4.2-3.9 8.1-6.5 11.8-7.4 10.3-19.9 15.6-32.4 14.2-21.8-2.5-29.3-15.8-32.8-33.5z"/>
					<path id="&lt;Compound Path&gt;" class="s1" d="m1440.6 661.5c34.6-23.3 36.4-73.9-0.2-96.2-37.9-23.1-76.2 7.9-80.7 36.2-7.2 44.7 39.6 87.7 80.9 60z"/>
					<g id="&lt;Group&gt;">
						<path id="&lt;Path&gt;" class="s0" d="m1400.3 587.6c-12.6 14.9-14.6 36-4.6 52.8 2.2 3.8 8.1 0.4 5.9-3.4-8.4-14.1-7.1-32 3.5-44.6 2.8-3.3-2-8.2-4.8-4.8z"/>
					</g>
					<path id="&lt;Path&gt;" class="s0" d="m1609.7 621.4c4.9 0.7 11.1-1.4 14.5-10.7 5-13.5 3.4-38-12.7-37.5-17.2 0.6-19.7 45.6-1.8 48.2z"/>
					<path id="&lt;Path&gt;" class="s0" d="m1516.3 623.5c4.9 0.7 11.1-1.3 14.5-10.7 5-13.4 3.4-38-12.7-37.4-17.2 0.5-19.7 45.5-1.8 48.1z"/>
					<path id="&lt;Compound Path&gt;" class="s0" d="m1477 556.7c5.1 5.2 12.7 5.3 19.4 4.9 8.4-0.6 16.8-1.3 25.2-2 6.6-0.5 13.9-0.5 19.8-4 6.4-3.7 9.4-10.9 7.8-18.1-2.6-12-15.1-19.7-26.6-20.9-16.5-1.6-39.2 4.9-47.5 20.6-3.3 6.2-3.2 14.3 1.9 19.5z"/>
					<path id="&lt;Compound Path&gt;" class="s0" d="m1593 556.5c8.6 6.9 18 4.4 27.7 4.9 7 0.4 14.5 1.6 19-5.6 6.8-10.8-3.6-24.7-12.5-30.1-10.4-6.3-25.1-9.2-35.2-2-5.2 3.7-8.2 10-7.7 16.9 0.5 6.3 4 12.1 8.7 15.9z"/>
				</g>
				<g id="&lt;Group&gt;">
					<path id="&lt;Path&gt;" class="s0" d="m1576 607.2c5.3 2.9 9.3 8.4 9.8 14.6 0.4 6.2-2.3 12.7-7.3 16.4-1.5 1.1-2.3 3-1.3 4.7 0.9 1.5 3.2 2.3 4.7 1.2 6.9-5.1 11.4-13.6 10.7-22.3-0.7-8.6-5.6-16.4-13.1-20.5-3.9-2.2-7.3 3.7-3.5 5.9z"/>
				</g>
				<path id="&lt;Compound Path&gt;" class="s0" d="m1679 423.4c-30.4-61.9-272.9-144.8-281.2-87-1.6 10.6 59.3 29.4 62.7 39.5 3.3 17.3 10.8 33.8 20.8 48.5 13.6 20 31.4 37.1 50.8 51.4 21.1 15.7 45.1 29.3 71.6 32.3 36.2 4.1 84.4-17.7 82.1-60.3-0.5-8.5-3-16.8-6.8-24.4z"/>
				<g id="&lt;Group&gt;">
					<path id="&lt;Path&gt;" class="s0" d="m1246.9 736.6c-8 69.3 15 145.3 71.2 189.6 23.2 18.3 51.7 30.3 81.5 30.6 31.3 0.4 63.7-12.3 86.3-33.9 31.8-30.2 37.1-78.2 37.4-119.7 0-4.4-6.8-4.4-6.8 0-0.3 35.9-3.9 76.1-26.8 105.4-19 24.3-51.7 39.5-82.2 41.2-61.4 3.5-112.3-43.1-136.5-96-16.6-36.5-21.8-77.5-17.2-117.2 0.5-4.4-6.4-4.3-6.9 0z"/>
				</g>
			</g>
			<g id="&lt;Group&gt;">
				<g id="&lt;Group&gt;">
					<path id="&lt;Path&gt;" class="s5" d="m2576.3 1791h-823.2l161.1-683c3.7-15.7 17.6-26.7 33.7-26.7h779.4c22.4 0 38.9 20.8 33.8 42.6l-151 640.4c-3.7 15.6-17.7 26.7-33.8 26.7z"/>
				</g>
				<g id="&lt;Group&gt;">
					<path id="&lt;Path&gt;" class="s0" d="m2372.5 1399.4c-7.6 31.3-32.8 57.7-63.3 68.1-26.3 9-59.2 5-74.6-20.7-16-26.5-5.4-60.6 13.2-82.8 19.7-23.6 52.1-40.5 83.4-34.3 14.6 2.9 27.8 11.2 35.5 24.1 8.3 13.7 9.3 30.2 5.8 45.6-1 4.3 5.6 6.1 6.6 1.8 3.5-15.2 2.9-31.2-3.7-45.6-6-13-17-23.2-30.1-28.7-32-13.4-69.2 0.3-93.3 22.7-23.8 22.2-40.2 58.7-28 90.8 11.3 30.2 43.3 42.4 73.6 37.2 38.5-6.7 72.3-38.5 81.5-76.4 1.1-4.3-5.5-6.1-6.6-1.8z"/>
				</g>
				<g id="&lt;Group&gt;">
					<path id="&lt;Path&gt;" class="s5" d="m1410.4 1736.9h820.1c15 0 27.1 12.1 27.1 27 0 15-12.1 27.1-27.1 27.1h-820.1c-15 0-27.1-12.1-27.1-27.1 0-14.9 12.1-27 27.1-27z"/>
				</g>
				<g id="&lt;Group&gt;">
					<path id="&lt;Path&gt;" class="s0" d="m1813.9 1788q2.3-9.4 4.5-18.8 6-25.5 12-50.9 8.8-37.5 17.7-75 10.8-45.8 21.6-91.6 11.8-50 23.5-99.9 11.8-49.9 23.6-99.8 10.8-46 21.7-92.1 9-38.4 18.1-76.7 6.2-26.4 12.4-52.9c1.7-7.1 3.3-14.2 5.1-21.3 2.3-9.3 8.2-16.7 16.7-21.1 3.9-2.1 0.4-8-3.5-5.9-10.6 5.5-17.4 15.1-20.2 26.6q-1.2 5.1-2.4 10.2-5.3 22.5-10.6 45.1-8.4 35.4-16.7 70.9-10.6 44.6-21.1 89.3-11.6 49.4-23.3 98.9-11.9 50.5-23.9 101.1-11.1 47.3-22.2 94.6-9.6 40.3-19.1 80.6-6.8 29.1-13.7 58.1c-2.1 9.2-4.5 18.4-6.5 27.6q-0.1 0.6-0.2 1.2c-1.1 4.3 5.5 6.1 6.5 1.8z"/>
				</g>
				<g id="&lt;Group&gt;">
					<path id="&lt;Path&gt;" class="s0" d="m1768 1740.2c18.8 5.1 34.8 19.4 41.6 37.7 1.5 4.1 8.1 2.4 6.6-1.8-7.7-20.6-25.1-36.8-46.4-42.5-4.3-1.2-6.1 5.4-1.8 6.6z"/>
				</g>
			</g>
		</g>
	</g>
</svg>