<?xml version="1.0" encoding="UTF-8"?><svg id="Layer_1" xmlns="http://www.w3.org/2000/svg" viewBox="0 0 78 24"><defs><style>.cls-1{fill:#ff0031;stroke-width:0px;}</style></defs><path class="cls-1" d="m9.5067,12.8305c0,1.3916-.6341,2.0706-1.7956,2.0706s-1.6497-.5611-1.6497-1.964v-6.021h-3.5295v6.7785c0,2.643,1.3748,4.0795,3.7428,4.0795,1.2883.0622,2.5149-.5553,3.2321-1.6273v1.3131h3.5127V6.9161h-3.5295l.0168,5.9144Z"/><path class="cls-1" d="m21.4869,6.5963c-1.2858-.0724-2.5174.5264-3.2546,1.5824v-1.2626h-3.4454v14.8084h3.5295v-5.4318c.7458.9866,1.936,1.5343,3.1704,1.459,1.758.0807,3.385-.9267,4.0963-2.5363.7634-1.948.7634-4.1123,0-6.0603-.7031-1.6195-2.3325-2.6373-4.0963-2.5588Zm.6565,7.205c-.3286.7001-1.0588,1.1212-1.8293,1.0549-1.3299,0-2.0481-.8417-2.0481-2.4073v-.5611c0-1.56.7183-2.4073,2.0481-2.4073.7666-.0614,1.4909.3589,1.8181,1.0549.1948.5272.2807,1.0884.2525,1.6497.0306.5495-.0515,1.0995-.2413,1.6161Z"/><path class="cls-1" d="m49.4203,6.6187c-.8479-.0058-1.6224.4799-1.9864,1.2457v-.9483h-3.5071v10.5438h3.5295v-6.6607c0-.7351.0617-.909.3591-1.0325.3224.6064.9634.9749,1.6497.9483,1.0809.0384,1.9882-.8068,2.0266-1.8877.0019-.0535.0016-.107-.0009-.1605.0647-1.0672-.748-1.9848-1.8152-2.0495-.0851-.0052-.1704-.0047-.2554.0014Z"/><path class="cls-1" d="m57.467,6.5963c-2.368,0-4.1636.6958-4.8651,2.2445-.1968.4697-.3034.9723-.3142,1.4814h3.5913c.0064-.2172.05-.4317.1291-.6341.2076-.4657.6734-.679,1.4982-.679s1.2457.2357,1.459.7014c.146.355.2038.7401.1683,1.1223v.1683h-1.5824c-2.5812,0-4.6294.3816-5.3925,2.0313-.1803.4569-.2662.9455-.2525,1.4365-.0213.5159.0806,1.0296.2974,1.4982.5275,1.184,1.7732,1.7732,3.4454,1.7732s2.8057-.5611,3.4847-1.5431v1.2513h3.5295v-6.0547c.0277-.887-.1231-1.7705-.4433-2.5981-.6958-1.5207-2.1997-2.1997-4.7528-2.1997Zm1.6834,6.5316c.0349.3971-.0307.7965-.1908,1.1616-.275.6116-.8866.9483-1.8349.9483-.5499.0817-1.0966-.1664-1.3972-.6341-.1425-.3079-.1425-.6629,0-.9708.2301-.5611,1.0549-.6565,2.0706-.6565h1.3523v.1515Z"/><path class="cls-1" d="m71.9387,2.5392v5.516c-.7484-.9834-1.9367-1.5302-3.1704-1.459-1.7655-.0851-3.3983.9348-4.0963,2.5588-.7634,1.948-.7634,4.1123,0,6.0603.705,1.6151,2.3362,2.6251,4.0963,2.5363,1.2813.0763,2.5115-.5133,3.2546-1.56v1.2682h3.4454V2.5392h-3.5296Zm.0449,9.9546c0,1.56-.7183,2.4073-2.0481,2.4073-.7674.0647-1.4935-.3566-1.8181-1.0549-.196-.5386-.2819-1.111-.2525-1.6834-.0282-.5613.0577-1.1225.2525-1.6497.3246-.6983,1.0507-1.1196,1.8181-1.0549,1.3299,0,2.0481.8473,2.0481,2.4073v.6285Z"/><path class="cls-1" d="m35.953,12.2413h2.2782l-.0898.3535c-.2806,1.184-1.6834,1.9752-2.8337,1.9752-1.588,0-3.6418-.7631-3.6418-4.4049,0-3.0189,1.3243-4.4891,3.3668-4.4891,1.1223,0,1.9584.2637,2.4746,1.0325.2328.3585.3805.7653.4321,1.1896h4.0346c-.03-1.3022-.5511-2.5449-1.459-3.479l-.073-.0729c-1.2233-1.3299-3.075-2.0706-5.3589-2.0706-4.663,0-7.6764,3.1031-7.6764,7.9064,0,5.5609,3.8157,7.5305,7.0872,7.5305,1.8349,0,3.4847-.5611,4.4891-1.6217l.0449,1.3692h3.1704v-7.9401h-6.2455v2.7215Z"/></svg>