<svg width="18" height="18" viewBox="0 0 18 18" fill="none" xmlns="http://www.w3.org/2000/svg">
<path fill-rule="evenodd" clip-rule="evenodd" d="M6.24702 12.6399C6.56193 12.6399 6.6576 12.5841 6.8996 12.5277L6.83723 12.3046C6.74659 12.0174 6.61599 11.7976 6.42756 11.5723C6.40813 11.5491 6.37944 11.5212 6.3549 11.5023C6.24847 11.4201 6.2951 11.4315 6.11655 11.3124C5.76697 11.0792 5.45376 11.006 5.0541 10.9372C4.73636 10.8825 4.34334 10.8658 3.97333 10.8658C3.98861 10.9231 4.12817 11.1084 4.1665 11.1723C4.28974 11.3779 4.45413 11.5589 4.60112 11.747L4.84739 12.0105L5.11966 12.2379C5.27039 12.3509 5.43333 12.4439 5.61055 12.5117C5.81223 12.5888 6.01578 12.6399 6.24702 12.6399ZM6.48154 4.94216C6.48154 5.08197 6.4477 5.05432 6.68546 5.05432C7.01698 5.05432 7.31782 4.97256 7.58959 4.82664C7.64934 4.79459 7.71055 4.75448 7.76345 4.71507C7.90604 4.60906 7.94943 4.56401 8.05951 4.4401C8.14833 4.34016 8.23432 4.22933 8.3035 4.11315C8.47013 3.83308 8.54965 3.64925 8.6694 3.33716C8.69726 3.26458 8.71632 3.1981 8.74124 3.12348L8.84488 2.79894C8.85671 2.75609 8.86847 2.72827 8.8776 2.6889C8.81577 2.6889 8.5783 2.77394 8.49297 2.80388L8.01242 2.98604C7.94972 3.01175 7.87922 3.04143 7.81369 3.07283L7.44193 3.28223C7.38152 3.32105 7.32451 3.3615 7.26799 3.40397C7.11282 3.52078 7.02977 3.60819 6.89698 3.75684C6.64311 4.04107 6.48154 4.50841 6.48154 4.94216ZM6.90977 11.5795C6.90977 11.8076 6.96707 12.0584 7.03202 12.222C7.09127 12.3714 7.17697 12.526 7.26862 12.6583C7.28734 12.6853 7.29955 12.692 7.30744 12.7215C7.34531 12.7183 7.38339 12.688 7.4095 12.6706C7.51128 12.6029 7.66894 12.4767 7.75361 12.3927L7.97019 12.1302C8.15539 11.8505 8.27605 11.5265 8.27605 11.1717C8.27605 10.8743 8.28257 10.8325 8.23092 10.5236C8.208 10.3864 8.18175 10.2743 8.14961 10.146L7.9944 9.60792C7.97829 9.55963 7.94341 9.4743 7.93959 9.42825C7.90471 9.43755 7.90778 9.44262 7.88823 9.46865C7.62671 9.81724 7.52411 9.92578 7.2763 10.3555C7.20027 10.4874 7.073 10.7665 7.02815 10.9026C6.96691 11.0886 6.90977 11.3397 6.90977 11.5795ZM5.80862 7.18521C5.80862 7.44493 5.80745 7.51507 5.86978 7.76637C5.87975 7.8066 5.89943 7.85643 5.90038 7.89891C6.04073 7.89891 6.39576 7.76064 6.53448 7.67659C6.80268 7.51411 6.66881 7.59757 6.8675 7.43858C6.93523 7.38439 7.01773 7.28789 7.07304 7.21593C7.09397 7.18865 7.11149 7.16312 7.13213 7.13222C7.21962 7.00113 7.27231 6.89978 7.33223 6.75116C7.42329 6.52544 7.47474 6.30695 7.51435 6.06665C7.54076 5.90637 7.54911 5.70212 7.56974 5.5511C7.57605 5.50501 7.56891 5.4583 7.57402 5.41266L7.59291 4.99315C7.54911 5.00333 7.32912 5.1521 7.28909 5.17868C7.23751 5.21289 7.19441 5.24528 7.14429 5.27862C7.09102 5.31409 7.04892 5.3451 6.99572 5.38492C6.56687 5.7064 6.30677 5.95334 6.03093 6.40835C5.98696 6.48093 5.90512 6.67646 5.88203 6.75905C5.84657 6.88574 5.80862 7.02692 5.80862 7.18521ZM8.86743 16.504C8.89379 16.5167 8.92701 16.5255 8.95799 16.5358C9.52134 16.7234 9.94413 16.8813 10.6007 16.8813C10.7889 16.8813 10.9872 16.8498 11.1377 16.8065C11.4405 16.7193 11.6957 16.5772 11.9135 16.3587C11.9713 16.3008 12.1747 16.086 12.1913 16.0146C11.9489 15.8523 12.0444 15.8766 11.6918 15.6986C11.2084 15.4545 10.6204 15.5029 10.1346 15.7116C9.90173 15.8116 9.74195 15.904 9.5269 16.0318L9.07915 16.3385C9.04407 16.3675 9.0133 16.3908 8.9753 16.4182C8.93964 16.4438 8.88873 16.4723 8.86743 16.504ZM5.53332 6.6856C5.66536 6.48849 5.72042 6.43663 5.83199 6.17881C6.1151 5.52444 5.92521 4.87136 5.58485 4.29926C5.48581 4.13267 5.37968 3.97911 5.26387 3.82498L4.90117 3.38222L4.77676 3.81858C4.66066 4.2829 4.53983 4.8276 4.6228 5.32252C4.68022 5.66529 4.77386 5.90205 4.93779 6.13924L5.06431 6.29819C5.10152 6.34681 5.1584 6.40378 5.20707 6.44094L5.36274 6.5707C5.41871 6.61231 5.47701 6.6479 5.53332 6.6856ZM5.58431 2.75011C5.58431 3.1577 5.61005 3.32159 5.78142 3.66432C5.84308 3.78765 5.88473 3.84815 5.96728 3.95765C6.01158 4.0164 6.14001 4.17054 6.19607 4.20807C6.29531 4.14163 6.42918 3.98679 6.50899 3.88884C6.53096 3.86181 6.54578 3.84088 6.56513 3.81248C6.73982 3.55607 6.8996 3.24639 6.8996 2.87244C6.8996 2.3825 6.83399 2.1219 6.66217 1.69268L6.26745 0.853699C6.228 0.864246 6.2373 0.87226 6.20288 0.942102L6.03293 1.26154C5.81883 1.6896 5.58431 2.27778 5.58431 2.75011ZM5.64547 9.01019C5.66835 8.91187 5.69999 8.81068 5.71527 8.70276C5.79956 8.10765 5.69219 7.68494 5.34397 7.24197C5.28866 7.17159 5.10999 6.96866 5.03961 6.91423C5.00755 6.88948 4.99833 6.87644 4.96823 6.85306C4.91811 6.81407 4.87791 6.77296 4.82995 6.73642C4.54843 6.52154 4.36651 6.41192 4.06314 6.22876C4.00717 6.19496 3.95905 6.16531 3.90195 6.13504C3.90195 6.56095 3.9987 7.2276 4.13261 7.62747C4.18373 7.78023 4.19448 7.79975 4.25448 7.93383C4.27271 7.97465 4.28637 7.99557 4.30626 8.03498C4.39467 8.21025 4.52904 8.39021 4.66901 8.52869C4.69733 8.55672 4.71614 8.5666 4.74566 8.59476C4.85616 8.70002 5.05534 8.81321 5.19968 8.87487C5.26416 8.90244 5.33488 8.93462 5.40493 8.95509C5.46609 8.97295 5.58099 9.01019 5.64547 9.01019ZM7.12391 2.53601C7.12391 2.6088 7.12553 2.86558 7.15393 2.89386C7.1754 2.91516 7.39103 2.87904 7.42989 2.87256C7.61114 2.84229 7.77246 2.79088 7.92078 2.7313L8.12736 2.6218C8.37737 2.45708 8.60147 2.24087 8.74506 1.97524C8.76433 1.93962 8.77927 1.91719 8.79937 1.87658L8.90492 1.66606C9.03892 1.38096 9.15813 0.871969 9.22361 0.557347C9.24238 0.467159 9.25509 0.379586 9.27527 0.292969C9.22984 0.296706 9.13513 0.349357 9.08601 0.368749C8.82993 0.469941 8.41217 0.688104 8.18225 0.841449C8.15381 0.860467 8.12885 0.875997 8.10278 0.894516C8.07695 0.912828 8.04539 0.934005 8.01965 0.954144C7.8318 1.1013 7.85866 1.08233 7.69103 1.23729L7.58702 1.34737C7.47212 1.49532 7.46066 1.49033 7.35785 1.6688C7.2136 1.91939 7.12391 2.21952 7.12391 2.53601ZM13.8227 16.0045C13.9161 16.0045 14.0191 15.984 14.1082 15.984C14.1082 15.7499 14.0818 15.6213 14.0267 15.413C13.9876 15.2653 13.9268 15.1217 13.8553 15.0032C13.7475 14.8245 13.6157 14.6607 13.4499 14.5318C13.4204 14.5088 13.3996 14.4912 13.371 14.468L13.1033 14.2973C12.8252 14.1286 12.3433 13.9877 12.0323 13.9102C11.8699 13.8698 11.7113 13.84 11.549 13.8022C11.5522 13.8408 11.6803 14.1398 11.7048 14.197C11.836 14.504 12.1006 15.0053 12.3265 15.2575L12.4564 15.4029C12.4773 15.4302 12.4979 15.4526 12.5253 15.4767C12.9036 15.8093 13.2955 16.0045 13.8227 16.0045ZM9.89725 13.2312C9.89725 13.7775 9.99669 14.3481 10.3341 14.7622C10.512 14.9806 10.6039 15.0392 10.8128 15.1806C10.8481 15.2046 11.0443 15.3213 11.08 15.3213C11.1347 15.3213 11.2602 14.9799 11.2801 14.9199C11.4129 14.5185 11.4121 14.1333 11.2699 13.7346C11.2476 13.6723 11.2251 13.629 11.2038 13.5764C11.1603 13.4695 11.105 13.383 11.05 13.2918L10.965 13.1627C10.8125 12.9607 10.6452 12.7508 10.4657 12.571L10.3021 12.4084C10.2754 12.3861 10.2671 12.3831 10.2412 12.3571C10.2115 12.3272 10.046 12.1603 10.0094 12.1505L9.93491 12.6674C9.91273 12.8329 9.89725 13.0403 9.89725 13.2312ZM5.75763 10.8251C5.93468 10.8251 6.07503 10.8313 6.24876 10.7957C6.29049 10.7872 6.29058 10.8073 6.27588 10.6944C6.23095 10.3494 6.09093 9.94812 5.85695 9.68578C5.78233 9.60207 5.70938 9.52189 5.62089 9.45279C5.18357 9.11126 4.6862 8.97058 4.14075 8.87342L3.72921 8.80573C3.68794 8.80005 3.62719 8.78684 3.58588 8.78593C3.58716 8.84348 3.63658 8.91789 3.66066 8.96601L3.79569 9.22865C3.95253 9.49066 4.0467 9.69305 4.25561 9.95144C4.46849 10.2148 4.65178 10.4045 4.9424 10.5799C5.12759 10.6916 5.46339 10.8251 5.75763 10.8251ZM6.20624 9.28554C6.20624 9.54539 6.20587 9.72535 6.30229 9.97457C6.33036 10.0471 6.35593 10.1062 6.38542 10.1769C6.41743 10.2538 6.44629 10.2996 6.48154 10.3662C6.5807 10.358 6.90205 10.13 6.96209 10.0821C7.11365 9.96141 7.06166 9.99575 7.15684 9.89958C7.35835 9.69599 7.48694 9.44606 7.56821 9.15885C7.73065 8.58504 7.62713 7.90655 7.51232 7.32701C7.50247 7.27726 7.48474 7.2129 7.48076 7.16482C7.4367 7.17657 7.26102 7.367 7.21293 7.41695L6.8658 7.81412C6.55462 8.19958 6.20624 8.7836 6.20624 9.28554ZM6.83843 14.8217C6.85039 14.8667 6.95981 14.9212 6.99726 14.9484C7.16784 15.0725 7.44114 15.2486 7.62688 15.3486C7.88125 15.4855 8.06727 15.5688 8.35632 15.6591C8.65009 15.7509 9.05574 15.7763 9.38348 15.6947C9.56278 15.6499 9.84596 15.522 9.99055 15.4147C10.0477 15.3722 10.1047 15.3294 10.1623 15.2908C10.1491 15.2413 10.0207 15.085 9.97626 15.0384C9.82844 14.8832 9.78742 14.827 9.58117 14.6892C9.36301 14.5435 9.03585 14.4037 8.67368 14.4037C8.27389 14.4037 8.18229 14.4102 7.79683 14.5057C7.73206 14.5217 7.66213 14.5391 7.59673 14.5605C7.45136 14.6081 6.97625 14.7556 6.83843 14.8217ZM5.17647 12.9662C5.18382 12.9937 5.35585 13.1715 5.38799 13.2033C5.42631 13.2411 5.46078 13.2805 5.50026 13.3152L5.73475 13.5294C5.76095 13.5555 5.76855 13.5583 5.79541 13.5809C5.81937 13.601 5.82738 13.6142 5.85367 13.6348C5.94132 13.7034 6.01823 13.7635 6.10709 13.83C6.19138 13.893 6.29087 13.952 6.38014 14.0055C6.55118 14.108 6.81659 14.2192 7.01786 14.2651C7.41162 14.3548 7.78894 14.312 8.147 14.1523L8.35765 14.0571C8.33136 13.9443 8.15613 13.6659 8.08235 13.5677C7.86148 13.2738 7.544 13.0384 7.18295 12.9377C6.5959 12.774 6.0426 12.8244 5.44882 12.9224C5.36905 12.9356 5.25349 12.9662 5.17647 12.9662ZM8.92859 14.1896C8.99993 14.1418 9.11947 14.0024 9.17761 13.9288C9.45349 13.58 9.60156 13.2763 9.60156 12.752C9.60156 12.3504 9.43102 11.8296 9.25829 11.4844L9.04091 11.0492C9.01097 10.9914 8.94321 10.8979 8.92859 10.8353C8.88458 10.847 8.90285 10.8537 8.86697 10.9164C8.73999 11.1377 8.64465 11.3771 8.54139 11.6104C8.4326 11.8563 8.32804 12.2478 8.29561 12.5269C8.26468 12.7923 8.27904 13.0428 8.35163 13.2984C8.3625 13.3367 8.37534 13.3739 8.38692 13.4058C8.3995 13.4407 8.41487 13.4849 8.42902 13.5167C8.48159 13.6348 8.56883 13.7819 8.64449 13.8824C8.70241 13.9593 8.85559 14.1407 8.92859 14.1896ZM11.1412 17.4624C11.1745 17.4784 11.2543 17.4958 11.3002 17.5073C11.7466 17.6184 12.175 17.7071 12.6502 17.7071C13.0655 17.7071 13.4983 17.585 13.7473 17.4176C13.9593 17.2752 13.9337 17.2937 14.1261 17.103C14.1887 17.041 14.3921 16.7804 14.4141 16.6978L14.1797 16.555C14.0533 16.4899 14.0761 16.4909 13.9232 16.4341C13.47 16.2656 13.0376 16.2704 12.5875 16.4516C12.228 16.5962 11.9889 16.7666 11.6947 16.9861C11.6527 17.0174 11.6205 17.0447 11.5809 17.0763C11.5396 17.1093 11.5088 17.1318 11.4701 17.1694C11.4317 17.2068 11.1736 17.414 11.1412 17.4624Z" fill="url(#paint0_linear_25266_8754)"/>
<defs>
<linearGradient id="paint0_linear_25266_8754" x1="8.99999" y1="0.292969" x2="8.99999" y2="17.7071" gradientUnits="userSpaceOnUse">
<stop stop-color="#FFECCF"/>
<stop offset="1" stop-color="#C4811D"/>
</linearGradient>
</defs>
</svg>
